<svg width="318" height="50" fill="none" xmlns="http://www.w3.org/2000/svg"><ellipse cx="240.479" cy="45.35" rx="2.584" ry="2.723" fill="#F8D24E"/><ellipse cx="246.079" cy="41.719" rx="2.584" ry="2.723" fill="#F8D24E"/><ellipse cx="252.537" cy="37.635" rx="2.584" ry="2.723" fill="#F8D24E"/><ellipse cx="258.568" cy="34.004" rx="2.584" ry="2.723" fill="#F8D24E"/><ellipse cx="255.121" cy="43.535" rx="2.584" ry="2.723" fill="#F8D24E"/><ellipse cx="260.721" cy="39.904" rx="2.584" ry="2.723" fill="#F8D24E"/><ellipse cx="267.18" cy="35.819" rx="2.584" ry="2.723" fill="#F8D24E"/><ellipse cx="273.211" cy="32.189" rx="2.584" ry="2.723" fill="#F8D24E"/><ellipse cx="267.611" cy="42.173" rx="2.584" ry="2.723" fill="#F8D24E"/><ellipse cx="273.211" cy="38.542" rx="2.584" ry="2.723" fill="#F8D24E"/><ellipse cx="279.671" cy="34.458" rx="2.584" ry="2.723" fill="#F8D24E"/><ellipse cx="285.698" cy="30.828" rx="2.584" ry="2.723" fill="#F8D24E"/><ellipse cx="279.669" cy="40.358" rx="2.584" ry="2.723" fill="#F8D24E"/><ellipse cx="285.267" cy="36.727" rx="2.584" ry="2.723" fill="#F8D24E"/><ellipse cx="291.727" cy="32.643" rx="2.584" ry="2.723" fill="#F8D24E"/><ellipse cx="297.757" cy="29.012" rx="2.584" ry="2.723" fill="#F8D24E"/><ellipse cx="283.546" cy="45.35" rx="2.584" ry="2.723" fill="#F8D24E"/><ellipse cx="289.145" cy="41.719" rx="2.584" ry="2.723" fill="#F8D24E"/><ellipse cx="296.896" cy="45.804" rx="2.584" ry="2.723" fill="#F8D24E"/><ellipse cx="295.605" cy="37.635" rx="2.584" ry="2.723" fill="#F8D24E"/><ellipse cx="303.356" cy="41.719" rx="2.584" ry="2.723" fill="#F8D24E"/><ellipse cx="309.387" cy="45.804" rx="2.584" ry="2.723" fill="#F8D24E"/><ellipse cx="301.635" cy="34.004" rx="2.584" ry="2.723" fill="#F8D24E"/><ellipse cx="309.387" cy="38.088" rx="2.584" ry="2.723" fill="#F8D24E"/><ellipse cx="315.416" cy="42.173" rx="2.584" ry="2.723" fill="#F8D24E"/><ellipse cx="214.212" cy="15.397" rx="2.584" ry="2.723" fill="#F8D24E"/><ellipse cx="219.81" cy="11.766" rx="2.584" ry="2.723" fill="#F8D24E"/><ellipse cx="226.271" cy="7.682" rx="2.584" ry="2.723" fill="#F8D24E"/><ellipse cx="232.299" cy="4.051" rx="2.584" ry="2.723" fill="#F8D24E"/><ellipse cx="203.444" cy="14.942" rx="2.584" ry="2.723" fill="#F8D24E"/><ellipse cx="209.042" cy="11.312" rx="2.584" ry="2.723" fill="#F8D24E"/><ellipse cx="215.502" cy="7.227" rx="2.584" ry="2.723" fill="#F8D24E"/><ellipse cx="221.531" cy="3.597" rx="2.584" ry="2.723" fill="#F8D24E"/><ellipse cx="227.56" cy="45.35" rx="2.584" ry="2.723" fill="#F8D24E"/><ellipse cx="233.157" cy="41.719" rx="2.584" ry="2.723" fill="#F8D24E"/><ellipse cx="239.617" cy="37.635" rx="2.584" ry="2.723" fill="#F8D24E"/><ellipse cx="245.647" cy="34.004" rx="2.584" ry="2.723" fill="#F8D24E"/><ellipse cx="220.67" cy="42.628" rx="2.584" ry="2.723" fill="#F8D24E"/><ellipse cx="226.269" cy="38.997" rx="2.584" ry="2.723" fill="#F8D24E"/><ellipse cx="232.727" cy="34.912" rx="2.584" ry="2.723" fill="#F8D24E"/><ellipse cx="238.758" cy="31.281" rx="2.584" ry="2.723" fill="#F8D24E"/><ellipse cx="223.254" cy="33.097" rx="2.584" ry="2.723" fill="#F8D24E"/><ellipse cx="228.852" cy="29.466" rx="2.584" ry="2.723" fill="#F8D24E"/><ellipse cx="235.313" cy="25.381" rx="2.584" ry="2.723" fill="#F8D24E"/><ellipse cx="241.342" cy="21.75" rx="2.584" ry="2.723" fill="#F8D24E"/><ellipse cx="223.254" cy="17.212" rx="2.584" ry="2.723" fill="#F8D24E"/><ellipse cx="228.852" cy="13.581" rx="2.584" ry="2.723" fill="#F8D24E"/><ellipse cx="235.313" cy="9.496" rx="2.584" ry="2.723" fill="#F8D24E"/><ellipse cx="241.342" cy="5.865" rx="2.584" ry="2.723" fill="#F8D24E"/><ellipse cx="221.961" cy="25.835" rx="2.584" ry="2.723" fill="#F8D24E"/><ellipse cx="227.561" cy="22.204" rx="2.584" ry="2.723" fill="#F8D24E"/><ellipse cx="234.019" cy="18.12" rx="2.584" ry="2.723" fill="#F8D24E"/><ellipse cx="240.049" cy="14.489" rx="2.584" ry="2.723" fill="#F8D24E"/><ellipse cx="194.83" cy="12.673" rx="2.584" ry="2.723" fill="#F8D24E"/><ellipse cx="200.43" cy="9.042" rx="2.584" ry="2.723" fill="#F8D24E"/><ellipse cx="206.89" cy="4.958" rx="2.584" ry="2.723" fill="#F8D24E"/><path d="M206.459 15.396c1.427 0 2.584-1.22 2.584-2.723 0-1.504-1.157-2.723-2.584-2.723s-2.584 1.22-2.584 2.723c0 1.504 1.157 2.723 2.584 2.723Z" fill="#F8D24E"/><ellipse rx="2.625" ry="2.76" transform="matrix(.98723 -.1595 .14396 .9896 85.047 33.303)" fill="#F8D24E"/><ellipse rx="2.625" ry="2.76" transform="matrix(.98723 -.1595 .14396 .9896 90.133 28.752)" fill="#F8D24E"/><ellipse rx="2.625" ry="2.76" transform="matrix(.98723 -.1595 .14396 .9896 96.017 23.609)" fill="#F8D24E"/><ellipse rx="2.625" ry="2.76" transform="matrix(.98723 -.1595 .14396 .9896 101.535 18.99)" fill="#F8D24E"/><ellipse cx="2.72" cy="33.551" rx="2.72" ry="2.82" fill="#F8D24E"/><ellipse cx="8.611" cy="29.792" rx="2.72" ry="2.82" fill="#F8D24E"/><ellipse cx="15.413" cy="25.562" rx="2.72" ry="2.82" fill="#F8D24E"/><ellipse cx="21.758" cy="21.802" rx="2.72" ry="2.82" fill="#F8D24E"/><ellipse cx="5.44" cy="40.6" rx="2.72" ry="2.82" fill="#F8D24E"/><ellipse cx="11.333" cy="36.841" rx="2.72" ry="2.82" fill="#F8D24E"/><ellipse cx="18.134" cy="32.611" rx="2.72" ry="2.82" fill="#F8D24E"/><ellipse cx="24.479" cy="28.851" rx="2.72" ry="2.82" fill="#F8D24E"/><ellipse cx="12.238" cy="44.36" rx="2.72" ry="2.82" fill="#F8D24E"/><ellipse cx="18.132" cy="40.6" rx="2.72" ry="2.82" fill="#F8D24E"/><ellipse cx="24.931" cy="36.371" rx="2.72" ry="2.82" fill="#F8D24E"/><ellipse cx="31.276" cy="32.611" rx="2.72" ry="2.82" fill="#F8D24E"/><ellipse cx="19.943" cy="46.711" rx="2.72" ry="2.82" fill="#F8D24E"/><ellipse cx="25.836" cy="42.95" rx="2.72" ry="2.82" fill="#F8D24E"/><ellipse cx="32.638" cy="38.721" rx="2.72" ry="2.82" fill="#F8D24E"/><ellipse cx="38.981" cy="34.961" rx="2.72" ry="2.82" fill="#F8D24E"/><ellipse cx="29.917" cy="47.181" rx="2.72" ry="2.82" fill="#F8D24E"/><ellipse cx="35.81" cy="43.421" rx="2.72" ry="2.82" fill="#F8D24E"/><ellipse cx="42.61" cy="39.191" rx="2.72" ry="2.82" fill="#F8D24E"/><ellipse cx="48.955" cy="35.431" rx="2.72" ry="2.82" fill="#F8D24E"/><ellipse cx="41.704" cy="47.18" rx="2.72" ry="2.82" fill="#F8D24E"/><ellipse cx="47.596" cy="43.42" rx="2.72" ry="2.82" fill="#F8D24E"/><ellipse cx="54.396" cy="39.191" rx="2.72" ry="2.82" fill="#F8D24E"/><ellipse cx="60.742" cy="35.431" rx="2.72" ry="2.82" fill="#F8D24E"/><ellipse cx="51.674" cy="46.71" rx="2.72" ry="2.82" fill="#F8D24E"/><ellipse cx="57.566" cy="42.95" rx="2.72" ry="2.82" fill="#F8D24E"/><ellipse cx="64.367" cy="38.721" rx="2.72" ry="2.82" fill="#F8D24E"/><ellipse cx="70.712" cy="34.961" rx="2.72" ry="2.82" fill="#F8D24E"/><ellipse cx="63.006" cy="46.24" rx="2.72" ry="2.82" fill="#F8D24E"/><ellipse cx="68.898" cy="42.48" rx="2.72" ry="2.82" fill="#F8D24E"/><ellipse cx="75.699" cy="38.251" rx="2.72" ry="2.82" fill="#F8D24E"/><ellipse cx="82.044" cy="34.491" rx="2.72" ry="2.82" fill="#F8D24E"/><ellipse cx="73.432" cy="34.021" rx="2.72" ry="2.82" fill="#F8D24E"/><ellipse cx="79.324" cy="30.261" rx="2.72" ry="2.82" fill="#F8D24E"/><ellipse cx="86.124" cy="26.032" rx="2.72" ry="2.82" fill="#F8D24E"/><ellipse cx="92.47" cy="22.272" rx="2.72" ry="2.82" fill="#F8D24E"/></svg>