<svg aria-hidden="true" style="width:0;height:0;position:absolute;overflow:hidden" xmlns="http://www.w3.org/2000/svg"><defs><symbol id="icon-dots-desktop" viewBox="0 0 100 32"><path fill="#f8d24e" style="fill:var(--color1,#f8d24e)" d="M45.691 25.73c0 .287-.218.519-.487.519s-.487-.232-.487-.519c0-.287.218-.519.487-.519s.487.232.487.519zM46.827 25.038c0 .287-.218.519-.487.519s-.487-.232-.487-.519c0-.287.218-.519.487-.519s.487.232.487.519zM44.798 27.633c0 .287-.218.519-.487.519s-.487-.232-.487-.519c0-.287.218-.519.487-.519s.487.232.487.519zM45.853 26.941c0 .287-.218.519-.487.519s-.487-.232-.487-.519c0-.287.218-.519.487-.519s.487.232.487.519zM47.07 26.163c0 .287-.218.519-.487.519s-.487-.232-.487-.519c0-.287.218-.519.487-.519s.487.232.487.519zM48.206 25.471c0 .287-.218.519-.487.519s-.487-.232-.487-.519c0-.287.218-.519.487-.519s.487.232.487.519z"/><path fill="#f8d24e" style="fill:var(--color1,#f8d24e)" d="M46.583 27.72c0 .287-.218.519-.487.519s-.487-.232-.487-.519c0-.287.218-.519.487-.519s.487.232.487.519zM47.638 27.028c0 .287-.218.519-.487.519s-.487-.232-.487-.519c0-.287.218-.519.487-.519s.487.232.487.519zM48.856 26.249c0 .287-.218.519-.487.519s-.487-.232-.487-.519c0-.287.218-.519.487-.519s.487.232.487.519zM49.992 25.557c0 .287-.218.519-.487.519s-.487-.232-.487-.519c0-.287.218-.519.487-.519s.487.232.487.519zM48.693 27.72c0 .287-.218.519-.487.519s-.487-.232-.487-.519c0-.287.218-.519.487-.519s.487.232.487.519zM49.748 27.028c0 .287-.218.519-.487.519s-.487-.232-.487-.519c0-.287.218-.519.487-.519s.487.232.487.519zM50.966 26.249c0 .287-.218.519-.487.519s-.487-.232-.487-.519c0-.287.218-.519.487-.519s.487.232.487.519zM52.102 25.557c0 .287-.218.519-.487.519s-.487-.232-.487-.519c0-.287.218-.519.487-.519s.487.232.487.519z"/><path fill="#f8d24e" style="fill:var(--color1,#f8d24e)" d="M50.479 27.633c0 .287-.218.519-.487.519s-.487-.232-.487-.519c0-.287.218-.519.487-.519s.487.232.487.519zM51.534 26.941c0 .287-.218.519-.487.519s-.487-.232-.487-.519c0-.287.218-.519.487-.519s.487.232.487.519zM52.751 26.163c0 .287-.218.519-.487.519s-.487-.232-.487-.519c0-.287.218-.519.487-.519s.487.232.487.519zM53.887 25.471c0 .287-.218.519-.487.519s-.487-.232-.487-.519c0-.287.218-.519.487-.519s.487.232.487.519zM52.508 27.547c0 .287-.218.519-.487.519s-.487-.232-.487-.519c0-.287.218-.519.487-.519s.487.232.487.519zM53.563 26.855c0 .287-.218.519-.487.519s-.487-.232-.487-.519c0-.287.218-.519.487-.519s.487.232.487.519zM54.78 26.076c0 .287-.218.519-.487.519s-.487-.232-.487-.519c0-.287.218-.519.487-.519s.487.232.487.519zM55.916 25.384c0 .287-.218.519-.487.519s-.487-.232-.487-.519c0-.287.218-.519.487-.519s.487.232.487.519z"/><path fill="#f8d24e" style="fill:var(--color1,#f8d24e)" d="M54.374 25.298c0 .287-.218.519-.487.519s-.487-.232-.487-.519c0-.287.218-.519.487-.519s.487.232.487.519zM55.429 24.606c0 .287-.218.519-.487.519s-.487-.232-.487-.519c0-.287.218-.519.487-.519s.487.232.487.519zM56.647 23.827c0 .287-.218.519-.487.519s-.487-.232-.487-.519c0-.287.218-.519.487-.519s.487.232.487.519zM57.783 23.135c0 .287-.218.519-.487.519s-.487-.232-.487-.519c0-.287.218-.519.487-.519s.487.232.487.519z"/></symbol><symbol id="icon-dots-tablet" viewBox="0 0 361 32"><path fill="#f8d24e" style="fill:var(--color1,#f8d24e)" d="M309.949 29.706c0 .999-.789 1.808-1.762 1.808s-1.762-.809-1.762-1.808.789-1.808 1.762-1.808 1.762.809 1.762 1.808zM313.767 27.295c0 .999-.789 1.808-1.762 1.808s-1.762-.809-1.762-1.808.789-1.808 1.762-1.808 1.762.809 1.762 1.808zM318.172 24.583c0 .999-.789 1.808-1.762 1.808s-1.762-.809-1.762-1.808.789-1.808 1.762-1.808 1.762.809 1.762 1.808zM322.284 22.172c0 .999-.789 1.808-1.762 1.808s-1.762-.809-1.762-1.808.789-1.808 1.762-1.808 1.762.809 1.762 1.808zM319.935 28.5c0 .999-.789 1.808-1.762 1.808s-1.762-.809-1.762-1.808.789-1.808 1.762-1.808 1.762.809 1.762 1.808zM323.752 26.09c0 .999-.789 1.808-1.762 1.808s-1.762-.809-1.762-1.808.789-1.808 1.762-1.808 1.762.809 1.762 1.808zM328.158 23.378c0 .999-.789 1.808-1.762 1.808s-1.762-.809-1.762-1.808.789-1.808 1.762-1.808 1.762.809 1.762 1.808zM332.27 20.967c0 .999-.789 1.808-1.762 1.808s-1.762-.809-1.762-1.808.789-1.808 1.762-1.808 1.762.809 1.762 1.808zM328.452 27.596c0 .999-.789 1.808-1.762 1.808s-1.762-.809-1.762-1.808.789-1.808 1.762-1.808 1.762.809 1.762 1.808zM332.27 25.185c0 .999-.789 1.808-1.762 1.808s-1.762-.809-1.762-1.808.789-1.808 1.762-1.808 1.762.809 1.762 1.808zM336.675 22.473c0 .999-.789 1.808-1.762 1.808s-1.762-.809-1.762-1.808.789-1.808 1.762-1.808 1.762.809 1.762 1.808zM340.786 20.063c0 .999-.789 1.808-1.762 1.808s-1.762-.809-1.762-1.808.789-1.808 1.762-1.808 1.762.809 1.762 1.808zM336.675 26.391c0 .999-.789 1.808-1.762 1.808s-1.762-.809-1.762-1.808.789-1.808 1.762-1.808 1.762.809 1.762 1.808zM340.493 23.98c0 .999-.789 1.808-1.762 1.808s-1.762-.809-1.762-1.808.789-1.808 1.762-1.808 1.762.809 1.762 1.808zM344.898 21.268c0 .999-.789 1.808-1.762 1.808s-1.762-.809-1.762-1.808.789-1.808 1.762-1.808 1.762.809 1.762 1.808zM349.01 18.858c0 .999-.789 1.808-1.762 1.808s-1.762-.809-1.762-1.808.789-1.808 1.762-1.808 1.762.809 1.762 1.808zM339.318 29.706c0 .999-.789 1.808-1.762 1.808s-1.762-.809-1.762-1.808.789-1.808 1.762-1.808 1.762.809 1.762 1.808zM343.136 27.295c0 .999-.789 1.808-1.762 1.808s-1.762-.809-1.762-1.808.789-1.808 1.762-1.808 1.762.809 1.762 1.808zM348.422 30.007c0 .999-.789 1.808-1.762 1.808s-1.762-.809-1.762-1.808.789-1.808 1.762-1.808 1.762.809 1.762 1.808zM347.541 24.583c0 .999-.789 1.808-1.762 1.808s-1.762-.809-1.762-1.808.789-1.808 1.762-1.808 1.762.809 1.762 1.808zM352.828 27.295c0 .999-.789 1.808-1.762 1.808s-1.762-.809-1.762-1.808.789-1.808 1.762-1.808 1.762.809 1.762 1.808zM356.939 30.007c0 .999-.789 1.808-1.762 1.808s-1.762-.809-1.762-1.808.789-1.808 1.762-1.808 1.762.809 1.762 1.808zM351.653 22.172c0 .999-.789 1.808-1.762 1.808s-1.762-.809-1.762-1.808.789-1.808 1.762-1.808 1.762.809 1.762 1.808zM356.939 24.884c0 .999-.789 1.808-1.762 1.808s-1.762-.809-1.762-1.808.789-1.808 1.762-1.808 1.762.809 1.762 1.808zM361.051 27.596c0 .999-.789 1.808-1.762 1.808s-1.762-.809-1.762-1.808.789-1.808 1.762-1.808 1.762.809 1.762 1.808zM292.034 9.818c0 .999-.789 1.808-1.762 1.808s-1.762-.809-1.762-1.808.789-1.808 1.762-1.808 1.762.809 1.762 1.808zM295.852 7.408c0 .999-.789 1.808-1.762 1.808s-1.762-.809-1.762-1.808.789-1.808 1.762-1.808 1.762.809 1.762 1.808zM300.258 4.696c0 .999-.789 1.808-1.762 1.808s-1.762-.809-1.762-1.808.789-1.808 1.762-1.808 1.762.809 1.762 1.808zM304.368 2.285c0 .999-.789 1.808-1.762 1.808s-1.762-.809-1.762-1.808.789-1.808 1.762-1.808 1.762.809 1.762 1.808zM284.692 9.516c0 .999-.789 1.808-1.762 1.808s-1.762-.809-1.762-1.808.789-1.808 1.762-1.808 1.762.809 1.762 1.808zM288.51 7.106c0 .999-.789 1.808-1.762 1.808s-1.762-.809-1.762-1.808.789-1.808 1.762-1.808 1.762.809 1.762 1.808zM292.915 4.394c0 .999-.789 1.808-1.762 1.808s-1.762-.809-1.762-1.808.789-1.808 1.762-1.808 1.762.809 1.762 1.808zM297.027 1.984c0 .999-.789 1.808-1.762 1.808s-1.762-.809-1.762-1.808.789-1.808 1.762-1.808 1.762.809 1.762 1.808zM301.139 29.706c0 .999-.789 1.808-1.762 1.808s-1.762-.809-1.762-1.808.789-1.808 1.762-1.808 1.762.809 1.762 1.808zM304.956 27.295c0 .999-.789 1.808-1.762 1.808s-1.762-.809-1.762-1.808.789-1.808 1.762-1.808 1.762.809 1.762 1.808zM309.362 24.583c0 .999-.789 1.808-1.762 1.808s-1.762-.809-1.762-1.808.789-1.808 1.762-1.808 1.762.809 1.762 1.808zM313.474 22.172c0 .999-.789 1.808-1.762 1.808s-1.762-.809-1.762-1.808.789-1.808 1.762-1.808 1.762.809 1.762 1.808zM296.44 27.898c0 .999-.789 1.808-1.762 1.808s-1.762-.809-1.762-1.808.789-1.808 1.762-1.808 1.762.809 1.762 1.808zM300.258 25.487c0 .999-.789 1.808-1.762 1.808s-1.762-.809-1.762-1.808.789-1.808 1.762-1.808 1.762.809 1.762 1.808zM304.663 22.775c0 .999-.789 1.808-1.762 1.808s-1.762-.809-1.762-1.808.789-1.808 1.762-1.808 1.762.809 1.762 1.808zM308.775 20.365c0 .999-.789 1.808-1.762 1.808s-1.762-.809-1.762-1.808.789-1.808 1.762-1.808 1.762.809 1.762 1.808zM298.201 21.57c0 .999-.789 1.808-1.762 1.808s-1.762-.809-1.762-1.808.789-1.808 1.762-1.808 1.762.809 1.762 1.808zM302.019 19.16c0 .999-.789 1.808-1.762 1.808s-1.762-.809-1.762-1.808.789-1.808 1.762-1.808 1.762.809 1.762 1.808zM306.425 16.447c0 .999-.789 1.808-1.762 1.808s-1.762-.809-1.762-1.808.789-1.808 1.762-1.808 1.762.809 1.762 1.808zM310.536 14.037c0 .999-.789 1.808-1.762 1.808s-1.762-.809-1.762-1.808.789-1.808 1.762-1.808 1.762.809 1.762 1.808zM298.201 11.024c0 .999-.789 1.808-1.762 1.808s-1.762-.809-1.762-1.808.789-1.808 1.762-1.808 1.762.809 1.762 1.808zM302.019 8.613c0 .999-.789 1.808-1.762 1.808s-1.762-.809-1.762-1.808.789-1.808 1.762-1.808 1.762.809 1.762 1.808zM306.425 5.901c0 .999-.789 1.808-1.762 1.808s-1.762-.809-1.762-1.808.789-1.808 1.762-1.808 1.762.809 1.762 1.808zM310.536 3.49c0 .999-.789 1.808-1.762 1.808s-1.762-.809-1.762-1.808.789-1.808 1.762-1.808 1.762.809 1.762 1.808zM297.321 16.749c0 .999-.789 1.808-1.762 1.808s-1.762-.809-1.762-1.808.789-1.808 1.762-1.808 1.762.809 1.762 1.808zM301.139 14.338c0 .999-.789 1.808-1.762 1.808s-1.762-.809-1.762-1.808.789-1.808 1.762-1.808 1.762.809 1.762 1.808zM305.544 11.626c0 .999-.789 1.808-1.762 1.808s-1.762-.809-1.762-1.808.789-1.808 1.762-1.808 1.762.809 1.762 1.808zM309.656 9.216c0 .999-.789 1.808-1.762 1.808s-1.762-.809-1.762-1.808.789-1.808 1.762-1.808 1.762.809 1.762 1.808zM278.819 8.01c0 .999-.789 1.808-1.762 1.808s-1.762-.809-1.762-1.808.789-1.808 1.762-1.808 1.762.809 1.762 1.808zM282.637 5.6c0 .999-.789 1.808-1.762 1.808s-1.762-.809-1.762-1.808.789-1.808 1.762-1.808 1.762.809 1.762 1.808zM287.042 2.888c0 .999-.789 1.808-1.762 1.808s-1.762-.809-1.762-1.808.789-1.808 1.762-1.808 1.762.809 1.762 1.808z"/><path fill="#f8d24e" style="fill:var(--color1,#f8d24e)" d="M284.986 9.818c.973 0 1.762-.809 1.762-1.808s-.789-1.808-1.762-1.808-1.762.809-1.762 1.808.789 1.808 1.762 1.808zM3.525 28.466c0 .999-.789 1.808-1.762 1.808S.001 29.465.001 28.466s.789-1.808 1.762-1.808 1.762.809 1.762 1.808zM7.342 26.055c0 .999-.789 1.808-1.762 1.808s-1.762-.809-1.762-1.808.789-1.808 1.762-1.808 1.762.809 1.762 1.808zM11.748 23.344c0 .999-.789 1.808-1.762 1.808s-1.762-.809-1.762-1.808.789-1.808 1.762-1.808 1.762.809 1.762 1.808zM15.859 20.933c0 .999-.789 1.808-1.762 1.808s-1.762-.809-1.762-1.808.789-1.808 1.762-1.808 1.762.809 1.762 1.808zM25.845 29.37c0 .999-.789 1.808-1.762 1.808s-1.762-.809-1.762-1.808.789-1.808 1.762-1.808 1.762.809 1.762 1.808zM29.663 26.959c0 .999-.789 1.808-1.762 1.808s-1.762-.809-1.762-1.808.789-1.808 1.762-1.808 1.762.809 1.762 1.808zM34.068 24.248c0 .999-.789 1.808-1.762 1.808s-1.762-.809-1.762-1.808.789-1.808 1.762-1.808 1.762.809 1.762 1.808zM38.179 21.837c0 .999-.789 1.808-1.762 1.808s-1.762-.809-1.762-1.808.789-1.808 1.762-1.808 1.762.809 1.762 1.808zM34.949 28.164c0 .999-.789 1.808-1.762 1.808s-1.762-.809-1.762-1.808.789-1.808 1.762-1.808 1.762.809 1.762 1.808zM38.767 25.754c0 .999-.789 1.808-1.762 1.808s-1.762-.809-1.762-1.808.789-1.808 1.762-1.808 1.762.809 1.762 1.808zM43.172 23.042c0 .999-.789 1.808-1.762 1.808s-1.762-.809-1.762-1.808.789-1.808 1.762-1.808 1.762.809 1.762 1.808zM47.284 20.631c0 .999-.789 1.808-1.762 1.808s-1.762-.809-1.762-1.808.789-1.808 1.762-1.808 1.762.809 1.762 1.808zM51.689 17.016c0 .999-.789 1.808-1.762 1.808s-1.762-.809-1.762-1.808.789-1.808 1.762-1.808 1.762.809 1.762 1.808zM42.291 19.125c0 .999-.789 1.808-1.762 1.808s-1.762-.809-1.762-1.808.789-1.808 1.762-1.808 1.762.809 1.762 1.808zM17.622 29.069c0 .999-.789 1.808-1.762 1.808s-1.762-.809-1.762-1.808.789-1.808 1.762-1.808 1.762.809 1.762 1.808zM21.44 26.658c0 .999-.789 1.808-1.762 1.808s-1.762-.809-1.762-1.808.789-1.808 1.762-1.808 1.762.809 1.762 1.808zM25.845 23.946c0 .999-.789 1.808-1.762 1.808s-1.762-.809-1.762-1.808.789-1.808 1.762-1.808 1.762.809 1.762 1.808zM29.956 21.536c0 .999-.789 1.808-1.762 1.808s-1.762-.809-1.762-1.808.789-1.808 1.762-1.808 1.762.809 1.762 1.808zM10.28 28.767c0 .999-.789 1.808-1.762 1.808s-1.762-.809-1.762-1.808.789-1.808 1.762-1.808 1.762.809 1.762 1.808zM14.097 26.356c0 .999-.789 1.808-1.762 1.808s-1.762-.809-1.762-1.808.789-1.808 1.762-1.808 1.762.809 1.762 1.808z"/><path fill="#f8d24e" style="fill:var(--color1,#f8d24e)" d="M18.503 23.645c0 .999-.789 1.808-1.762 1.808s-1.762-.809-1.762-1.808.789-1.808 1.762-1.808 1.762.809 1.762 1.808zM22.614 21.234c0 .999-.789 1.808-1.762 1.808s-1.762-.809-1.762-1.808.789-1.808 1.762-1.808 1.762.809 1.762 1.808z"/></symbol><symbol id="icon-dots-mobile" viewBox="0 0 205 32"><path fill="#f8d24e" style="fill:var(--color1,#f8d24e)" d="M155.332 29.617c0 .982-.764 1.779-1.706 1.779s-1.706-.796-1.706-1.779c0-.982.764-1.779 1.706-1.779s1.706.796 1.706 1.779zM159.029 27.245c0 .982-.764 1.779-1.706 1.779s-1.706-.796-1.706-1.779c0-.982.764-1.779 1.706-1.779s1.706.796 1.706 1.779zM163.292 24.578c0 .982-.764 1.779-1.706 1.779s-1.706-.796-1.706-1.779c0-.982.764-1.779 1.706-1.779s1.706.796 1.706 1.779zM167.273 22.207c0 .982-.764 1.779-1.706 1.779s-1.706-.796-1.706-1.779c0-.982.764-1.779 1.706-1.779s1.706.796 1.706 1.779zM164.998 28.431c0 .982-.764 1.779-1.706 1.779s-1.706-.796-1.706-1.779c0-.982.764-1.779 1.706-1.779s1.706.796 1.706 1.779zM168.694 26.06c0 .982-.764 1.779-1.706 1.779s-1.706-.796-1.706-1.779c0-.982.764-1.779 1.706-1.779s1.706.796 1.706 1.779zM172.957 23.392c0 .982-.764 1.779-1.706 1.779s-1.706-.796-1.706-1.779c0-.982.764-1.779 1.706-1.779s1.706.796 1.706 1.779zM176.939 21.021c0 .982-.764 1.779-1.706 1.779s-1.706-.796-1.706-1.779c0-.982.764-1.779 1.706-1.779s1.706.796 1.706 1.779zM173.243 27.542c0 .982-.764 1.779-1.706 1.779s-1.706-.796-1.706-1.779c0-.982.764-1.779 1.706-1.779s1.706.796 1.706 1.779zM176.94 25.171c0 .982-.764 1.779-1.706 1.779s-1.706-.796-1.706-1.779c0-.982.764-1.779 1.706-1.779s1.706.796 1.706 1.779zM181.204 22.503c0 .982-.764 1.779-1.706 1.779s-1.706-.796-1.706-1.779c0-.982.764-1.779 1.706-1.779s1.706.796 1.706 1.779zM185.183 20.132c0 .982-.764 1.779-1.706 1.779s-1.706-.796-1.706-1.779c0-.982.764-1.779 1.706-1.779s1.706.796 1.706 1.779zM181.203 26.356c0 .982-.764 1.779-1.706 1.779s-1.706-.796-1.706-1.779c0-.982.764-1.779 1.706-1.779s1.706.796 1.706 1.779zM184.897 23.985c0 .982-.764 1.779-1.706 1.779s-1.706-.796-1.706-1.779c0-.982.764-1.779 1.706-1.779s1.706.796 1.706 1.779zM189.162 21.318c0 .982-.764 1.779-1.706 1.779s-1.706-.796-1.706-1.779c0-.982.764-1.779 1.706-1.779s1.706.796 1.706 1.779zM193.142 18.947c0 .982-.764 1.779-1.706 1.779s-1.706-.796-1.706-1.779c0-.982.764-1.779 1.706-1.779s1.706.796 1.706 1.779zM183.762 29.617c0 .982-.764 1.779-1.706 1.779s-1.706-.796-1.706-1.779c0-.982.764-1.779 1.706-1.779s1.706.796 1.706 1.779zM187.458 27.245c0 .982-.764 1.779-1.706 1.779s-1.706-.796-1.706-1.779c0-.982.764-1.779 1.706-1.779s1.706.796 1.706 1.779zM192.575 29.913c0 .982-.764 1.779-1.706 1.779s-1.706-.796-1.706-1.779c0-.982.764-1.779 1.706-1.779s1.706.796 1.706 1.779zM191.723 24.578c0 .982-.764 1.779-1.706 1.779s-1.706-.796-1.706-1.779c0-.982.764-1.779 1.706-1.779s1.706.796 1.706 1.779zM196.84 27.245c0 .982-.764 1.779-1.706 1.779s-1.706-.796-1.706-1.779c0-.982.764-1.779 1.706-1.779s1.706.796 1.706 1.779zM200.82 29.913c0 .982-.764 1.779-1.706 1.779s-1.706-.796-1.706-1.779c0-.982.764-1.779 1.706-1.779s1.706.796 1.706 1.779zM195.702 22.207c0 .982-.764 1.779-1.706 1.779s-1.706-.796-1.706-1.779c0-.982.764-1.779 1.706-1.779s1.706.796 1.706 1.779zM200.82 24.874c0 .982-.764 1.779-1.706 1.779s-1.706-.796-1.706-1.779c0-.982.764-1.779 1.706-1.779s1.706.796 1.706 1.779zM204.8 27.542c0 .982-.764 1.779-1.706 1.779s-1.706-.796-1.706-1.779c0-.982.764-1.779 1.706-1.779s1.706.796 1.706 1.779zM137.992 10.055c0 .982-.764 1.779-1.706 1.779s-1.706-.796-1.706-1.779c0-.982.764-1.779 1.706-1.779s1.706.796 1.706 1.779zM141.688 7.684c0 .982-.764 1.779-1.706 1.779s-1.706-.796-1.706-1.779c0-.982.764-1.779 1.706-1.779s1.706.796 1.706 1.779zM145.953 5.016c0 .982-.764 1.779-1.706 1.779s-1.706-.796-1.706-1.779c0-.982.764-1.779 1.706-1.779s1.706.796 1.706 1.779zM149.932 2.645c0 .982-.764 1.779-1.706 1.779s-1.706-.796-1.706-1.779c0-.982.764-1.779 1.706-1.779s1.706.796 1.706 1.779zM130.884 9.758c0 .982-.764 1.779-1.706 1.779s-1.706-.796-1.706-1.779c0-.982.764-1.779 1.706-1.779s1.706.796 1.706 1.779zM134.579 7.387c0 .982-.764 1.779-1.706 1.779s-1.706-.796-1.706-1.779c0-.982.764-1.779 1.706-1.779s1.706.796 1.706 1.779zM138.844 4.72c0 .982-.764 1.779-1.706 1.779s-1.706-.796-1.706-1.779c0-.982.764-1.779 1.706-1.779s1.706.796 1.706 1.779zM142.824 2.349c0 .982-.764 1.779-1.706 1.779s-1.706-.796-1.706-1.779c0-.982.764-1.779 1.706-1.779s1.706.796 1.706 1.779zM146.804 29.617c0 .982-.764 1.779-1.706 1.779s-1.706-.796-1.706-1.779c0-.982.764-1.779 1.706-1.779s1.706.796 1.706 1.779zM150.499 27.245c0 .982-.764 1.779-1.706 1.779s-1.706-.796-1.706-1.779c0-.982.764-1.779 1.706-1.779s1.706.796 1.706 1.779zM154.763 24.578c0 .982-.764 1.779-1.706 1.779s-1.706-.796-1.706-1.779c0-.982.764-1.779 1.706-1.779s1.706.796 1.706 1.779zM158.744 22.207c0 .982-.764 1.779-1.706 1.779s-1.706-.796-1.706-1.779c0-.982.764-1.779 1.706-1.779s1.706.796 1.706 1.779zM142.256 27.839c0 .982-.764 1.779-1.706 1.779s-1.706-.796-1.706-1.779c0-.982.764-1.779 1.706-1.779s1.706.796 1.706 1.779zM145.951 25.468c0 .982-.764 1.779-1.706 1.779s-1.706-.796-1.706-1.779c0-.982.764-1.779 1.706-1.779s1.706.796 1.706 1.779zM150.215 22.799c0 .982-.764 1.779-1.706 1.779s-1.706-.796-1.706-1.779c0-.982.764-1.779 1.706-1.779s1.706.796 1.706 1.779zM154.196 20.429c0 .982-.764 1.779-1.706 1.779s-1.706-.796-1.706-1.779c0-.982.764-1.779 1.706-1.779s1.706.796 1.706 1.779zM143.962 21.614c0 .982-.764 1.779-1.706 1.779s-1.706-.796-1.706-1.779c0-.982.764-1.779 1.706-1.779s1.706.796 1.706 1.779zM147.656 19.243c0 .982-.764 1.779-1.706 1.779s-1.706-.796-1.706-1.779c0-.982.764-1.779 1.706-1.779s1.706.796 1.706 1.779zM151.922 16.575c0 .982-.764 1.779-1.706 1.779s-1.706-.796-1.706-1.779c0-.982.764-1.779 1.706-1.779s1.706.796 1.706 1.779zM155.901 14.204c0 .982-.764 1.779-1.706 1.779s-1.706-.796-1.706-1.779c0-.982.764-1.779 1.706-1.779s1.706.796 1.706 1.779zM143.962 11.24c0 .982-.764 1.779-1.706 1.779s-1.706-.796-1.706-1.779c0-.982.764-1.779 1.706-1.779s1.706.796 1.706 1.779zM147.656 8.869c0 .982-.764 1.779-1.706 1.779s-1.706-.796-1.706-1.779c0-.982.764-1.779 1.706-1.779s1.706.796 1.706 1.779zM151.922 6.202c0 .982-.764 1.779-1.706 1.779s-1.706-.796-1.706-1.779c0-.982.764-1.779 1.706-1.779s1.706.796 1.706 1.779zM155.901 3.83c0 .982-.764 1.779-1.706 1.779s-1.706-.796-1.706-1.779c0-.982.764-1.779 1.706-1.779s1.706.796 1.706 1.779zM143.108 16.872c0 .982-.764 1.779-1.706 1.779s-1.706-.796-1.706-1.779c0-.982.764-1.779 1.706-1.779s1.706.796 1.706 1.779zM146.804 14.5c0 .982-.764 1.779-1.706 1.779s-1.706-.796-1.706-1.779c0-.982.764-1.779 1.706-1.779s1.706.796 1.706 1.779zM151.068 11.834c0 .982-.764 1.779-1.706 1.779s-1.706-.796-1.706-1.779c0-.982.764-1.779 1.706-1.779s1.706.796 1.706 1.779zM155.048 9.462c0 .982-.764 1.779-1.706 1.779s-1.706-.796-1.706-1.779c0-.982.764-1.779 1.706-1.779s1.706.796 1.706 1.779zM125.198 8.276c0 .982-.764 1.779-1.706 1.779s-1.706-.796-1.706-1.779c0-.982.764-1.779 1.706-1.779s1.706.796 1.706 1.779zM128.895 5.905c0 .982-.764 1.779-1.706 1.779s-1.706-.796-1.706-1.779c0-.982.764-1.779 1.706-1.779s1.706.796 1.706 1.779zM133.159 3.238c0 .982-.764 1.779-1.706 1.779s-1.706-.796-1.706-1.779c0-.982.764-1.779 1.706-1.779s1.706.796 1.706 1.779z"/><path fill="#f8d24e" style="fill:var(--color1,#f8d24e)" d="M131.169 10.054c.942 0 1.706-.796 1.706-1.778s-.764-1.779-1.706-1.779-1.706.796-1.706 1.779c0 .982.764 1.778 1.706 1.778zM52.732 21.475c.145.985-.504 1.906-1.449 2.057s-1.828-.525-1.973-1.51c-.145-.985.504-1.906 1.449-2.057s1.828.525 1.973 1.51zM56.09 18.504c.145.985-.504 1.906-1.449 2.057s-1.828-.525-1.973-1.51c-.145-.985.504-1.906 1.449-2.057s1.828.525 1.973 1.51zM59.974 15.144c.145.985-.504 1.906-1.449 2.057s-1.828-.525-1.973-1.51c-.145-.985.504-1.906 1.449-2.057s1.828.525 1.973 1.51zM63.617 12.128c.145.985-.504 1.906-1.449 2.057s-1.828-.525-1.973-1.51c-.145-.985.504-1.906 1.449-2.057s1.828.525 1.973 1.51zM2.132 19.067c0 .997-.779 1.805-1.741 1.805s-1.741-.808-1.741-1.805c0-.997.779-1.805 1.741-1.805s1.741.808 1.741 1.805zM6.485 16.36c0 .997-.779 1.805-1.741 1.805s-1.741-.808-1.741-1.805c0-.997.779-1.805 1.741-1.805s1.741.808 1.741 1.805zM10.546 13.953c0 .997-.779 1.805-1.741 1.805s-1.741-.808-1.741-1.805c0-.997.779-1.805 1.741-1.805s1.741.808 1.741 1.805zM.102 25.984c0 .997-.779 1.805-1.741 1.805s-1.741-.808-1.741-1.805c0-.997.779-1.805 1.741-1.805s1.741.808 1.741 1.805zM3.874 23.578c0 .997-.779 1.805-1.741 1.805S.392 24.575.392 23.578c0-.997.779-1.805 1.741-1.805s1.741.808 1.741 1.805zM8.227 20.871c0 .997-.779 1.805-1.741 1.805s-1.741-.808-1.741-1.805c0-.997.779-1.805 1.741-1.805s1.741.808 1.741 1.805zM12.287 18.465c0 .997-.779 1.805-1.741 1.805s-1.741-.808-1.741-1.805c0-.997.779-1.805 1.741-1.805s1.741.808 1.741 1.805zM4.453 28.39c0 .997-.779 1.805-1.741 1.805S.971 29.387.971 28.39c0-.997.779-1.805 1.741-1.805s1.741.808 1.741 1.805zM8.225 25.984c0 .997-.779 1.805-1.741 1.805s-1.741-.808-1.741-1.805c0-.997.779-1.805 1.741-1.805s1.741.808 1.741 1.805zM12.577 23.277c0 .997-.779 1.805-1.741 1.805s-1.741-.808-1.741-1.805c0-.997.779-1.805 1.741-1.805s1.741.808 1.741 1.805zM16.637 20.871c0 .997-.779 1.805-1.741 1.805s-1.741-.808-1.741-1.805c0-.997.779-1.805 1.741-1.805s1.741.808 1.741 1.805zM9.384 29.895c0 .997-.779 1.805-1.741 1.805s-1.741-.808-1.741-1.805c0-.997.779-1.805 1.741-1.805s1.741.808 1.741 1.805zM13.156 27.488c0 .997-.779 1.805-1.741 1.805s-1.741-.808-1.741-1.805c0-.997.779-1.805 1.741-1.805s1.741.808 1.741 1.805zM17.509 24.781c0 .997-.779 1.805-1.741 1.805s-1.741-.808-1.741-1.805c0-.997.779-1.805 1.741-1.805s1.741.808 1.741 1.805zM21.569 22.375c0 .997-.779 1.805-1.741 1.805s-1.741-.808-1.741-1.805c0-.997.779-1.805 1.741-1.805s1.741.808 1.741 1.805z"/><path fill="#f8d24e" style="fill:var(--color1,#f8d24e)" d="M15.768 30.196c0 .997-.779 1.805-1.741 1.805s-1.741-.808-1.741-1.805c0-.997.779-1.805 1.741-1.805s1.741.808 1.741 1.805zM19.539 27.789c0 .997-.779 1.805-1.741 1.805s-1.741-.808-1.741-1.805c0-.997.779-1.805 1.741-1.805s1.741.808 1.741 1.805zM23.891 25.082c0 .997-.779 1.805-1.741 1.805s-1.741-.808-1.741-1.805c0-.997.779-1.805 1.741-1.805s1.741.808 1.741 1.805zM27.952 22.676c0 .997-.779 1.805-1.741 1.805s-1.741-.808-1.741-1.805c0-.997.779-1.805 1.741-1.805s1.741.808 1.741 1.805zM23.311 30.195c0 .997-.779 1.805-1.741 1.805s-1.741-.808-1.741-1.805c0-.997.779-1.805 1.741-1.805s1.741.808 1.741 1.805zM27.082 27.789c0 .997-.779 1.805-1.741 1.805s-1.741-.808-1.741-1.805c0-.997.779-1.805 1.741-1.805s1.741.808 1.741 1.805zM31.434 25.082c0 .997-.779 1.805-1.741 1.805s-1.741-.808-1.741-1.805c0-.997.779-1.805 1.741-1.805s1.741.808 1.741 1.805zM35.496 22.676c0 .997-.779 1.805-1.741 1.805s-1.741-.808-1.741-1.805c0-.997.779-1.805 1.741-1.805s1.741.808 1.741 1.805z"/><path fill="#f8d24e" style="fill:var(--color1,#f8d24e)" d="M29.692 29.894c0 .997-.779 1.805-1.741 1.805s-1.741-.808-1.741-1.805c0-.997.779-1.805 1.741-1.805s1.741.808 1.741 1.805zM33.463 27.488c0 .997-.779 1.805-1.741 1.805s-1.741-.808-1.741-1.805c0-.997.779-1.805 1.741-1.805s1.741.808 1.741 1.805zM37.816 24.781c0 .997-.779 1.805-1.741 1.805s-1.741-.808-1.741-1.805c0-.997.779-1.805 1.741-1.805s1.741.808 1.741 1.805zM41.876 22.375c0 .997-.779 1.805-1.741 1.805s-1.741-.808-1.741-1.805c0-.997.779-1.805 1.741-1.805s1.741.808 1.741 1.805zM36.945 29.594c0 .997-.779 1.805-1.741 1.805s-1.741-.808-1.741-1.805c0-.997.779-1.805 1.741-1.805s1.741.808 1.741 1.805zM40.716 27.187c0 .997-.779 1.805-1.741 1.805s-1.741-.808-1.741-1.805c0-.997.779-1.805 1.741-1.805s1.741.808 1.741 1.805zM45.068 24.481c0 .997-.779 1.805-1.741 1.805s-1.741-.808-1.741-1.805c0-.997.779-1.805 1.741-1.805s1.741.808 1.741 1.805zM49.129 22.074c0 .997-.779 1.805-1.741 1.805s-1.741-.808-1.741-1.805c0-.997.779-1.805 1.741-1.805s1.741.808 1.741 1.805z"/><path fill="#f8d24e" style="fill:var(--color1,#f8d24e)" d="M43.617 21.773c0 .997-.779 1.805-1.741 1.805s-1.741-.808-1.741-1.805c0-.997.779-1.805 1.741-1.805s1.741.808 1.741 1.805zM47.388 19.367c0 .997-.779 1.805-1.741 1.805s-1.741-.808-1.741-1.805c0-.997.779-1.805 1.741-1.805s1.741.808 1.741 1.805zM51.74 16.66c0 .997-.779 1.805-1.741 1.805s-1.741-.808-1.741-1.805c0-.997.779-1.805 1.741-1.805s1.741.808 1.741 1.805zM55.802 14.254c0 .997-.779 1.805-1.741 1.805s-1.741-.808-1.741-1.805c0-.997.779-1.805 1.741-1.805s1.741.808 1.741 1.805z"/></symbol><symbol id="icon-arrow" viewBox="0 0 82 32"><path d="M81.414 17.414c.362-.362.586-.862.586-1.414s-.224-1.052-.586-1.414L68.686 1.858a2 2 0 1 0-2.829 2.827l.001.001L77.172 16 65.858 27.314a2 2 0 0 0 2.829 2.827l-.001.001 12.728-12.728zM0 18h80v-4H0v4z"/></symbol><symbol id="icon-burger" viewBox="0 0 50 32"><path stroke="#fff" stroke-linecap="round" stroke-width="4.571" d="M2.286 2.286H48M2.286 16H48M2.286 29.714H48"/></symbol><symbol id="icon-cross" viewBox="0 0 32 32"><path d="M28.614 1.13 16 13.744 3.386 1.13a1.594 1.594 0 0 0-2.207.049 1.596 1.596 0 0 0-.049 2.207L13.738 16 1.127 28.611a1.6 1.6 0 0 0-.029 2.284 1.579 1.579 0 0 0 1.147.468 1.616 1.616 0 0 0 1.137-.493L16 18.259l12.614 12.614a1.6 1.6 0 0 0 2.207-.049 1.596 1.596 0 0 0 .049-2.207L18.256 16.003 30.87 3.385a1.6 1.6 0 0 0 .029-2.284 1.579 1.579 0 0 0-1.147-.468 1.601 1.601 0 0 0-1.137.494v.003z"/></symbol><symbol id="icon-facebook" viewBox="0 0 16 32"><path d="M14.143 15.971H10.11v14.865H3.998V15.971H1.092v-5.222h2.906V7.367c0-2.417 1.142-6.204 6.167-6.204l4.527.019v5.072h-3.284c-.538 0-1.297.272-1.297 1.425v3.073h4.567l-.534 5.219z"/></symbol><symbol id="icon-github" viewBox="0 0 32 32"><path d="M16 0C7.211 0 0 7.211 0 16c0 7.499 5.262 14.312 12.25 16v-5.293a3.921 3.921 0 0 1-2.062-.06l.028.007c-.946-.278-1.714-.909-2.285-1.869-.363-.613-1.008-1.28-1.68-1.23l-.165-1.867c1.454-.125 2.71.886 3.456 2.139.333.558.715.885 1.205 1.029.472.141.981.074 1.573-.136.149-1.186.693-1.629 1.104-2.256-4.168-.621-5.829-2.832-6.488-4.576-.874-2.318-.405-5.213 1.139-7.043.03-.035.085-.128.064-.192-.709-2.141.154-3.91.186-4.098.818.24.95-.243 3.552 1.336l.448.27c.189.112.128.048.317.032a13.246 13.246 0 0 1 3.349-.469h.01c1.136.014 2.272.176 3.403.483l.146.016c-.013-.003.04-.01.128-.062 3.248-1.968 3.131-1.325 4.003-1.608.032.189.882 1.987.182 4.099-.096.291 2.816 2.957 1.202 7.235-.659 1.744-2.32 3.957-6.486 4.578.534.816 1.176 1.248 1.173 2.928v6.606c6.986-1.688 12.25-8.501 12.25-16 0-8.789-7.211-16-16-16z"/></symbol><symbol id="icon-greater-than" viewBox="0 0 32 32"><path stroke-linejoin="round" stroke-linecap="round" stroke-width="5.333" d="M10.667 5.333 23.862 16 10.667 26.667"/></symbol><symbol id="icon-telegram" viewBox="0 0 44 32"><path d="m17.346 21.048-.676 8.86c.966 0 1.384-.388 1.886-.852l4.528-4.04 9.38 6.414c1.72.894 2.932.422 3.396-1.478L42.02 3.02C42.566.648 41.1-.28 39.424.3L3.23 13.234C.76 14.13.798 15.414 2.81 16l9.254 2.686L33.558 6.134c1.01-.626 1.93-.28 1.174.346L17.346 21.05z"/></symbol></defs></svg>