<svg aria-hidden="true" style="position: absolute; width: 0; height: 0; overflow: hidden;" version="1.1" xmlns="http://www.w3.org/2000/svg" xmlns:xlink="http://www.w3.org/1999/xlink">
<defs>
<symbol id="icon-dots-desktop" viewBox="0 0 100 32">
<path fill="#f8d24e" style="fill: var(--color1, #f8d24e)" d="M45.691 25.73c0 0.287-0.218 0.519-0.487 0.519s-0.487-0.232-0.487-0.519c0-0.287 0.218-0.519 0.487-0.519s0.487 0.232 0.487 0.519z"></path>
<path fill="#f8d24e" style="fill: var(--color1, #f8d24e)" d="M46.827 25.038c0 0.287-0.218 0.519-0.487 0.519s-0.487-0.232-0.487-0.519c0-0.287 0.218-0.519 0.487-0.519s0.487 0.232 0.487 0.519z"></path>
<path fill="#f8d24e" style="fill: var(--color1, #f8d24e)" d="M44.798 27.633c0 0.287-0.218 0.519-0.487 0.519s-0.487-0.232-0.487-0.519c0-0.287 0.218-0.519 0.487-0.519s0.487 0.232 0.487 0.519z"></path>
<path fill="#f8d24e" style="fill: var(--color1, #f8d24e)" d="M45.853 26.941c0 0.287-0.218 0.519-0.487 0.519s-0.487-0.232-0.487-0.519c0-0.287 0.218-0.519 0.487-0.519s0.487 0.232 0.487 0.519z"></path>
<path fill="#f8d24e" style="fill: var(--color1, #f8d24e)" d="M47.070 26.163c0 0.287-0.218 0.519-0.487 0.519s-0.487-0.232-0.487-0.519c0-0.287 0.218-0.519 0.487-0.519s0.487 0.232 0.487 0.519z"></path>
<path fill="#f8d24e" style="fill: var(--color1, #f8d24e)" d="M48.206 25.471c0 0.287-0.218 0.519-0.487 0.519s-0.487-0.232-0.487-0.519c0-0.287 0.218-0.519 0.487-0.519s0.487 0.232 0.487 0.519z"></path>
<path fill="#f8d24e" style="fill: var(--color1, #f8d24e)" d="M46.583 27.72c0 0.287-0.218 0.519-0.487 0.519s-0.487-0.232-0.487-0.519c0-0.287 0.218-0.519 0.487-0.519s0.487 0.232 0.487 0.519z"></path>
<path fill="#f8d24e" style="fill: var(--color1, #f8d24e)" d="M47.638 27.028c0 0.287-0.218 0.519-0.487 0.519s-0.487-0.232-0.487-0.519c0-0.287 0.218-0.519 0.487-0.519s0.487 0.232 0.487 0.519z"></path>
<path fill="#f8d24e" style="fill: var(--color1, #f8d24e)" d="M48.856 26.249c0 0.287-0.218 0.519-0.487 0.519s-0.487-0.232-0.487-0.519c0-0.287 0.218-0.519 0.487-0.519s0.487 0.232 0.487 0.519z"></path>
<path fill="#f8d24e" style="fill: var(--color1, #f8d24e)" d="M49.992 25.557c0 0.287-0.218 0.519-0.487 0.519s-0.487-0.232-0.487-0.519c0-0.287 0.218-0.519 0.487-0.519s0.487 0.232 0.487 0.519z"></path>
<path fill="#f8d24e" style="fill: var(--color1, #f8d24e)" d="M48.693 27.72c0 0.287-0.218 0.519-0.487 0.519s-0.487-0.232-0.487-0.519c0-0.287 0.218-0.519 0.487-0.519s0.487 0.232 0.487 0.519z"></path>
<path fill="#f8d24e" style="fill: var(--color1, #f8d24e)" d="M49.748 27.028c0 0.287-0.218 0.519-0.487 0.519s-0.487-0.232-0.487-0.519c0-0.287 0.218-0.519 0.487-0.519s0.487 0.232 0.487 0.519z"></path>
<path fill="#f8d24e" style="fill: var(--color1, #f8d24e)" d="M50.966 26.249c0 0.287-0.218 0.519-0.487 0.519s-0.487-0.232-0.487-0.519c0-0.287 0.218-0.519 0.487-0.519s0.487 0.232 0.487 0.519z"></path>
<path fill="#f8d24e" style="fill: var(--color1, #f8d24e)" d="M52.102 25.557c0 0.287-0.218 0.519-0.487 0.519s-0.487-0.232-0.487-0.519c0-0.287 0.218-0.519 0.487-0.519s0.487 0.232 0.487 0.519z"></path>
<path fill="#f8d24e" style="fill: var(--color1, #f8d24e)" d="M50.479 27.633c0 0.287-0.218 0.519-0.487 0.519s-0.487-0.232-0.487-0.519c0-0.287 0.218-0.519 0.487-0.519s0.487 0.232 0.487 0.519z"></path>
<path fill="#f8d24e" style="fill: var(--color1, #f8d24e)" d="M51.534 26.941c0 0.287-0.218 0.519-0.487 0.519s-0.487-0.232-0.487-0.519c0-0.287 0.218-0.519 0.487-0.519s0.487 0.232 0.487 0.519z"></path>
<path fill="#f8d24e" style="fill: var(--color1, #f8d24e)" d="M52.751 26.163c0 0.287-0.218 0.519-0.487 0.519s-0.487-0.232-0.487-0.519c0-0.287 0.218-0.519 0.487-0.519s0.487 0.232 0.487 0.519z"></path>
<path fill="#f8d24e" style="fill: var(--color1, #f8d24e)" d="M53.887 25.471c0 0.287-0.218 0.519-0.487 0.519s-0.487-0.232-0.487-0.519c0-0.287 0.218-0.519 0.487-0.519s0.487 0.232 0.487 0.519z"></path>
<path fill="#f8d24e" style="fill: var(--color1, #f8d24e)" d="M52.508 27.547c0 0.287-0.218 0.519-0.487 0.519s-0.487-0.232-0.487-0.519c0-0.287 0.218-0.519 0.487-0.519s0.487 0.232 0.487 0.519z"></path>
<path fill="#f8d24e" style="fill: var(--color1, #f8d24e)" d="M53.563 26.855c0 0.287-0.218 0.519-0.487 0.519s-0.487-0.232-0.487-0.519c0-0.287 0.218-0.519 0.487-0.519s0.487 0.232 0.487 0.519z"></path>
<path fill="#f8d24e" style="fill: var(--color1, #f8d24e)" d="M54.78 26.076c0 0.287-0.218 0.519-0.487 0.519s-0.487-0.232-0.487-0.519c0-0.287 0.218-0.519 0.487-0.519s0.487 0.232 0.487 0.519z"></path>
<path fill="#f8d24e" style="fill: var(--color1, #f8d24e)" d="M55.916 25.384c0 0.287-0.218 0.519-0.487 0.519s-0.487-0.232-0.487-0.519c0-0.287 0.218-0.519 0.487-0.519s0.487 0.232 0.487 0.519z"></path>
<path fill="#f8d24e" style="fill: var(--color1, #f8d24e)" d="M54.374 25.298c0 0.287-0.218 0.519-0.487 0.519s-0.487-0.232-0.487-0.519c0-0.287 0.218-0.519 0.487-0.519s0.487 0.232 0.487 0.519z"></path>
<path fill="#f8d24e" style="fill: var(--color1, #f8d24e)" d="M55.429 24.606c0 0.287-0.218 0.519-0.487 0.519s-0.487-0.232-0.487-0.519c0-0.287 0.218-0.519 0.487-0.519s0.487 0.232 0.487 0.519z"></path>
<path fill="#f8d24e" style="fill: var(--color1, #f8d24e)" d="M56.647 23.827c0 0.287-0.218 0.519-0.487 0.519s-0.487-0.232-0.487-0.519c0-0.287 0.218-0.519 0.487-0.519s0.487 0.232 0.487 0.519z"></path>
<path fill="#f8d24e" style="fill: var(--color1, #f8d24e)" d="M57.783 23.135c0 0.287-0.218 0.519-0.487 0.519s-0.487-0.232-0.487-0.519c0-0.287 0.218-0.519 0.487-0.519s0.487 0.232 0.487 0.519z"></path>
</symbol>


<symbol id="icon-dots-tablet" viewBox="0 0 361 32">
<path fill="#f8d24e" style="fill: var(--color1, #f8d24e)" d="M309.949 29.706c0 0.999-0.789 1.808-1.762 1.808s-1.762-0.809-1.762-1.808c0-0.999 0.789-1.808 1.762-1.808s1.762 0.809 1.762 1.808z"></path>
<path fill="#f8d24e" style="fill: var(--color1, #f8d24e)" d="M313.767 27.295c0 0.999-0.789 1.808-1.762 1.808s-1.762-0.809-1.762-1.808c0-0.999 0.789-1.808 1.762-1.808s1.762 0.809 1.762 1.808z"></path>
<path fill="#f8d24e" style="fill: var(--color1, #f8d24e)" d="M318.172 24.583c0 0.999-0.789 1.808-1.762 1.808s-1.762-0.809-1.762-1.808c0-0.999 0.789-1.808 1.762-1.808s1.762 0.809 1.762 1.808z"></path>
<path fill="#f8d24e" style="fill: var(--color1, #f8d24e)" d="M322.284 22.172c0 0.999-0.789 1.808-1.762 1.808s-1.762-0.809-1.762-1.808c0-0.999 0.789-1.808 1.762-1.808s1.762 0.809 1.762 1.808z"></path>
<path fill="#f8d24e" style="fill: var(--color1, #f8d24e)" d="M319.935 28.5c0 0.999-0.789 1.808-1.762 1.808s-1.762-0.809-1.762-1.808c0-0.999 0.789-1.808 1.762-1.808s1.762 0.809 1.762 1.808z"></path>
<path fill="#f8d24e" style="fill: var(--color1, #f8d24e)" d="M323.752 26.090c0 0.999-0.789 1.808-1.762 1.808s-1.762-0.809-1.762-1.808c0-0.999 0.789-1.808 1.762-1.808s1.762 0.809 1.762 1.808z"></path>
<path fill="#f8d24e" style="fill: var(--color1, #f8d24e)" d="M328.158 23.378c0 0.999-0.789 1.808-1.762 1.808s-1.762-0.809-1.762-1.808c0-0.999 0.789-1.808 1.762-1.808s1.762 0.809 1.762 1.808z"></path>
<path fill="#f8d24e" style="fill: var(--color1, #f8d24e)" d="M332.27 20.967c0 0.999-0.789 1.808-1.762 1.808s-1.762-0.809-1.762-1.808c0-0.999 0.789-1.808 1.762-1.808s1.762 0.809 1.762 1.808z"></path>
<path fill="#f8d24e" style="fill: var(--color1, #f8d24e)" d="M328.452 27.596c0 0.999-0.789 1.808-1.762 1.808s-1.762-0.809-1.762-1.808c0-0.999 0.789-1.808 1.762-1.808s1.762 0.809 1.762 1.808z"></path>
<path fill="#f8d24e" style="fill: var(--color1, #f8d24e)" d="M332.27 25.185c0 0.999-0.789 1.808-1.762 1.808s-1.762-0.809-1.762-1.808c0-0.999 0.789-1.808 1.762-1.808s1.762 0.809 1.762 1.808z"></path>
<path fill="#f8d24e" style="fill: var(--color1, #f8d24e)" d="M336.675 22.473c0 0.999-0.789 1.808-1.762 1.808s-1.762-0.809-1.762-1.808c0-0.999 0.789-1.808 1.762-1.808s1.762 0.809 1.762 1.808z"></path>
<path fill="#f8d24e" style="fill: var(--color1, #f8d24e)" d="M340.786 20.063c0 0.999-0.789 1.808-1.762 1.808s-1.762-0.809-1.762-1.808c0-0.999 0.789-1.808 1.762-1.808s1.762 0.809 1.762 1.808z"></path>
<path fill="#f8d24e" style="fill: var(--color1, #f8d24e)" d="M336.675 26.391c0 0.999-0.789 1.808-1.762 1.808s-1.762-0.809-1.762-1.808c0-0.999 0.789-1.808 1.762-1.808s1.762 0.809 1.762 1.808z"></path>
<path fill="#f8d24e" style="fill: var(--color1, #f8d24e)" d="M340.493 23.98c0 0.999-0.789 1.808-1.762 1.808s-1.762-0.809-1.762-1.808c0-0.999 0.789-1.808 1.762-1.808s1.762 0.809 1.762 1.808z"></path>
<path fill="#f8d24e" style="fill: var(--color1, #f8d24e)" d="M344.898 21.268c0 0.999-0.789 1.808-1.762 1.808s-1.762-0.809-1.762-1.808c0-0.999 0.789-1.808 1.762-1.808s1.762 0.809 1.762 1.808z"></path>
<path fill="#f8d24e" style="fill: var(--color1, #f8d24e)" d="M349.010 18.858c0 0.999-0.789 1.808-1.762 1.808s-1.762-0.809-1.762-1.808c0-0.999 0.789-1.808 1.762-1.808s1.762 0.809 1.762 1.808z"></path>
<path fill="#f8d24e" style="fill: var(--color1, #f8d24e)" d="M339.318 29.706c0 0.999-0.789 1.808-1.762 1.808s-1.762-0.809-1.762-1.808c0-0.999 0.789-1.808 1.762-1.808s1.762 0.809 1.762 1.808z"></path>
<path fill="#f8d24e" style="fill: var(--color1, #f8d24e)" d="M343.136 27.295c0 0.999-0.789 1.808-1.762 1.808s-1.762-0.809-1.762-1.808c0-0.999 0.789-1.808 1.762-1.808s1.762 0.809 1.762 1.808z"></path>
<path fill="#f8d24e" style="fill: var(--color1, #f8d24e)" d="M348.422 30.007c0 0.999-0.789 1.808-1.762 1.808s-1.762-0.809-1.762-1.808c0-0.999 0.789-1.808 1.762-1.808s1.762 0.809 1.762 1.808z"></path>
<path fill="#f8d24e" style="fill: var(--color1, #f8d24e)" d="M347.541 24.583c0 0.999-0.789 1.808-1.762 1.808s-1.762-0.809-1.762-1.808c0-0.999 0.789-1.808 1.762-1.808s1.762 0.809 1.762 1.808z"></path>
<path fill="#f8d24e" style="fill: var(--color1, #f8d24e)" d="M352.828 27.295c0 0.999-0.789 1.808-1.762 1.808s-1.762-0.809-1.762-1.808c0-0.999 0.789-1.808 1.762-1.808s1.762 0.809 1.762 1.808z"></path>
<path fill="#f8d24e" style="fill: var(--color1, #f8d24e)" d="M356.939 30.007c0 0.999-0.789 1.808-1.762 1.808s-1.762-0.809-1.762-1.808c0-0.999 0.789-1.808 1.762-1.808s1.762 0.809 1.762 1.808z"></path>
<path fill="#f8d24e" style="fill: var(--color1, #f8d24e)" d="M351.653 22.172c0 0.999-0.789 1.808-1.762 1.808s-1.762-0.809-1.762-1.808c0-0.999 0.789-1.808 1.762-1.808s1.762 0.809 1.762 1.808z"></path>
<path fill="#f8d24e" style="fill: var(--color1, #f8d24e)" d="M356.939 24.884c0 0.999-0.789 1.808-1.762 1.808s-1.762-0.809-1.762-1.808c0-0.999 0.789-1.808 1.762-1.808s1.762 0.809 1.762 1.808z"></path>
<path fill="#f8d24e" style="fill: var(--color1, #f8d24e)" d="M361.051 27.596c0 0.999-0.789 1.808-1.762 1.808s-1.762-0.809-1.762-1.808c0-0.999 0.789-1.808 1.762-1.808s1.762 0.809 1.762 1.808z"></path>
<path fill="#f8d24e" style="fill: var(--color1, #f8d24e)" d="M292.034 9.818c0 0.999-0.789 1.808-1.762 1.808s-1.762-0.809-1.762-1.808c0-0.999 0.789-1.808 1.762-1.808s1.762 0.809 1.762 1.808z"></path>
<path fill="#f8d24e" style="fill: var(--color1, #f8d24e)" d="M295.852 7.408c0 0.999-0.789 1.808-1.762 1.808s-1.762-0.809-1.762-1.808c0-0.999 0.789-1.808 1.762-1.808s1.762 0.809 1.762 1.808z"></path>
<path fill="#f8d24e" style="fill: var(--color1, #f8d24e)" d="M300.258 4.696c0 0.999-0.789 1.808-1.762 1.808s-1.762-0.809-1.762-1.808c0-0.999 0.789-1.808 1.762-1.808s1.762 0.809 1.762 1.808z"></path>
<path fill="#f8d24e" style="fill: var(--color1, #f8d24e)" d="M304.368 2.285c0 0.999-0.789 1.808-1.762 1.808s-1.762-0.809-1.762-1.808c0-0.999 0.789-1.808 1.762-1.808s1.762 0.809 1.762 1.808z"></path>
<path fill="#f8d24e" style="fill: var(--color1, #f8d24e)" d="M284.692 9.516c0 0.999-0.789 1.808-1.762 1.808s-1.762-0.809-1.762-1.808c0-0.999 0.789-1.808 1.762-1.808s1.762 0.809 1.762 1.808z"></path>
<path fill="#f8d24e" style="fill: var(--color1, #f8d24e)" d="M288.51 7.106c0 0.999-0.789 1.808-1.762 1.808s-1.762-0.809-1.762-1.808c0-0.999 0.789-1.808 1.762-1.808s1.762 0.809 1.762 1.808z"></path>
<path fill="#f8d24e" style="fill: var(--color1, #f8d24e)" d="M292.915 4.394c0 0.999-0.789 1.808-1.762 1.808s-1.762-0.809-1.762-1.808c0-0.999 0.789-1.808 1.762-1.808s1.762 0.809 1.762 1.808z"></path>
<path fill="#f8d24e" style="fill: var(--color1, #f8d24e)" d="M297.027 1.984c0 0.999-0.789 1.808-1.762 1.808s-1.762-0.809-1.762-1.808c0-0.999 0.789-1.808 1.762-1.808s1.762 0.809 1.762 1.808z"></path>
<path fill="#f8d24e" style="fill: var(--color1, #f8d24e)" d="M301.139 29.706c0 0.999-0.789 1.808-1.762 1.808s-1.762-0.809-1.762-1.808c0-0.999 0.789-1.808 1.762-1.808s1.762 0.809 1.762 1.808z"></path>
<path fill="#f8d24e" style="fill: var(--color1, #f8d24e)" d="M304.956 27.295c0 0.999-0.789 1.808-1.762 1.808s-1.762-0.809-1.762-1.808c0-0.999 0.789-1.808 1.762-1.808s1.762 0.809 1.762 1.808z"></path>
<path fill="#f8d24e" style="fill: var(--color1, #f8d24e)" d="M309.362 24.583c0 0.999-0.789 1.808-1.762 1.808s-1.762-0.809-1.762-1.808c0-0.999 0.789-1.808 1.762-1.808s1.762 0.809 1.762 1.808z"></path>
<path fill="#f8d24e" style="fill: var(--color1, #f8d24e)" d="M313.474 22.172c0 0.999-0.789 1.808-1.762 1.808s-1.762-0.809-1.762-1.808c0-0.999 0.789-1.808 1.762-1.808s1.762 0.809 1.762 1.808z"></path>
<path fill="#f8d24e" style="fill: var(--color1, #f8d24e)" d="M296.44 27.898c0 0.999-0.789 1.808-1.762 1.808s-1.762-0.809-1.762-1.808c0-0.999 0.789-1.808 1.762-1.808s1.762 0.809 1.762 1.808z"></path>
<path fill="#f8d24e" style="fill: var(--color1, #f8d24e)" d="M300.258 25.487c0 0.999-0.789 1.808-1.762 1.808s-1.762-0.809-1.762-1.808c0-0.999 0.789-1.808 1.762-1.808s1.762 0.809 1.762 1.808z"></path>
<path fill="#f8d24e" style="fill: var(--color1, #f8d24e)" d="M304.663 22.775c0 0.999-0.789 1.808-1.762 1.808s-1.762-0.809-1.762-1.808c0-0.999 0.789-1.808 1.762-1.808s1.762 0.809 1.762 1.808z"></path>
<path fill="#f8d24e" style="fill: var(--color1, #f8d24e)" d="M308.775 20.365c0 0.999-0.789 1.808-1.762 1.808s-1.762-0.809-1.762-1.808c0-0.999 0.789-1.808 1.762-1.808s1.762 0.809 1.762 1.808z"></path>
<path fill="#f8d24e" style="fill: var(--color1, #f8d24e)" d="M298.201 21.57c0 0.999-0.789 1.808-1.762 1.808s-1.762-0.809-1.762-1.808c0-0.999 0.789-1.808 1.762-1.808s1.762 0.809 1.762 1.808z"></path>
<path fill="#f8d24e" style="fill: var(--color1, #f8d24e)" d="M302.019 19.16c0 0.999-0.789 1.808-1.762 1.808s-1.762-0.809-1.762-1.808c0-0.999 0.789-1.808 1.762-1.808s1.762 0.809 1.762 1.808z"></path>
<path fill="#f8d24e" style="fill: var(--color1, #f8d24e)" d="M306.425 16.447c0 0.999-0.789 1.808-1.762 1.808s-1.762-0.809-1.762-1.808c0-0.999 0.789-1.808 1.762-1.808s1.762 0.809 1.762 1.808z"></path>
<path fill="#f8d24e" style="fill: var(--color1, #f8d24e)" d="M310.536 14.037c0 0.999-0.789 1.808-1.762 1.808s-1.762-0.809-1.762-1.808c0-0.999 0.789-1.808 1.762-1.808s1.762 0.809 1.762 1.808z"></path>
<path fill="#f8d24e" style="fill: var(--color1, #f8d24e)" d="M298.201 11.024c0 0.999-0.789 1.808-1.762 1.808s-1.762-0.809-1.762-1.808c0-0.999 0.789-1.808 1.762-1.808s1.762 0.809 1.762 1.808z"></path>
<path fill="#f8d24e" style="fill: var(--color1, #f8d24e)" d="M302.019 8.613c0 0.999-0.789 1.808-1.762 1.808s-1.762-0.809-1.762-1.808c0-0.999 0.789-1.808 1.762-1.808s1.762 0.809 1.762 1.808z"></path>
<path fill="#f8d24e" style="fill: var(--color1, #f8d24e)" d="M306.425 5.901c0 0.999-0.789 1.808-1.762 1.808s-1.762-0.809-1.762-1.808c0-0.999 0.789-1.808 1.762-1.808s1.762 0.809 1.762 1.808z"></path>
<path fill="#f8d24e" style="fill: var(--color1, #f8d24e)" d="M310.536 3.49c0 0.999-0.789 1.808-1.762 1.808s-1.762-0.809-1.762-1.808c0-0.999 0.789-1.808 1.762-1.808s1.762 0.809 1.762 1.808z"></path>
<path fill="#f8d24e" style="fill: var(--color1, #f8d24e)" d="M297.321 16.749c0 0.999-0.789 1.808-1.762 1.808s-1.762-0.809-1.762-1.808c0-0.999 0.789-1.808 1.762-1.808s1.762 0.809 1.762 1.808z"></path>
<path fill="#f8d24e" style="fill: var(--color1, #f8d24e)" d="M301.139 14.338c0 0.999-0.789 1.808-1.762 1.808s-1.762-0.809-1.762-1.808c0-0.999 0.789-1.808 1.762-1.808s1.762 0.809 1.762 1.808z"></path>
<path fill="#f8d24e" style="fill: var(--color1, #f8d24e)" d="M305.544 11.626c0 0.999-0.789 1.808-1.762 1.808s-1.762-0.809-1.762-1.808c0-0.999 0.789-1.808 1.762-1.808s1.762 0.809 1.762 1.808z"></path>
<path fill="#f8d24e" style="fill: var(--color1, #f8d24e)" d="M309.656 9.216c0 0.999-0.789 1.808-1.762 1.808s-1.762-0.809-1.762-1.808c0-0.999 0.789-1.808 1.762-1.808s1.762 0.809 1.762 1.808z"></path>
<path fill="#f8d24e" style="fill: var(--color1, #f8d24e)" d="M278.819 8.010c0 0.999-0.789 1.808-1.762 1.808s-1.762-0.809-1.762-1.808c0-0.999 0.789-1.808 1.762-1.808s1.762 0.809 1.762 1.808z"></path>
<path fill="#f8d24e" style="fill: var(--color1, #f8d24e)" d="M282.637 5.6c0 0.999-0.789 1.808-1.762 1.808s-1.762-0.809-1.762-1.808c0-0.999 0.789-1.808 1.762-1.808s1.762 0.809 1.762 1.808z"></path>
<path fill="#f8d24e" style="fill: var(--color1, #f8d24e)" d="M287.042 2.888c0 0.999-0.789 1.808-1.762 1.808s-1.762-0.809-1.762-1.808c0-0.999 0.789-1.808 1.762-1.808s1.762 0.809 1.762 1.808z"></path>
<path fill="#f8d24e" style="fill: var(--color1, #f8d24e)" d="M284.986 9.818c0.973 0 1.762-0.809 1.762-1.808s-0.789-1.808-1.762-1.808-1.762 0.809-1.762 1.808 0.789 1.808 1.762 1.808z"></path>
<path fill="#f8d24e" style="fill: var(--color1, #f8d24e)" d="M3.525 28.466c0 0.999-0.789 1.808-1.762 1.808s-1.762-0.809-1.762-1.808c0-0.999 0.789-1.808 1.762-1.808s1.762 0.809 1.762 1.808z"></path>
<path fill="#f8d24e" style="fill: var(--color1, #f8d24e)" d="M7.342 26.055c0 0.999-0.789 1.808-1.762 1.808s-1.762-0.809-1.762-1.808c0-0.999 0.789-1.808 1.762-1.808s1.762 0.809 1.762 1.808z"></path>
<path fill="#f8d24e" style="fill: var(--color1, #f8d24e)" d="M11.748 23.344c0 0.999-0.789 1.808-1.762 1.808s-1.762-0.809-1.762-1.808c0-0.999 0.789-1.808 1.762-1.808s1.762 0.809 1.762 1.808z"></path>
<path fill="#f8d24e" style="fill: var(--color1, #f8d24e)" d="M15.859 20.933c0 0.999-0.789 1.808-1.762 1.808s-1.762-0.809-1.762-1.808c0-0.999 0.789-1.808 1.762-1.808s1.762 0.809 1.762 1.808z"></path>
<path fill="#f8d24e" style="fill: var(--color1, #f8d24e)" d="M25.845 29.37c0 0.999-0.789 1.808-1.762 1.808s-1.762-0.809-1.762-1.808c0-0.999 0.789-1.808 1.762-1.808s1.762 0.809 1.762 1.808z"></path>
<path fill="#f8d24e" style="fill: var(--color1, #f8d24e)" d="M29.663 26.959c0 0.999-0.789 1.808-1.762 1.808s-1.762-0.809-1.762-1.808c0-0.999 0.789-1.808 1.762-1.808s1.762 0.809 1.762 1.808z"></path>
<path fill="#f8d24e" style="fill: var(--color1, #f8d24e)" d="M34.068 24.248c0 0.999-0.789 1.808-1.762 1.808s-1.762-0.809-1.762-1.808c0-0.999 0.789-1.808 1.762-1.808s1.762 0.809 1.762 1.808z"></path>
<path fill="#f8d24e" style="fill: var(--color1, #f8d24e)" d="M38.179 21.837c0 0.999-0.789 1.808-1.762 1.808s-1.762-0.809-1.762-1.808c0-0.999 0.789-1.808 1.762-1.808s1.762 0.809 1.762 1.808z"></path>
<path fill="#f8d24e" style="fill: var(--color1, #f8d24e)" d="M34.949 28.164c0 0.999-0.789 1.808-1.762 1.808s-1.762-0.809-1.762-1.808c0-0.999 0.789-1.808 1.762-1.808s1.762 0.809 1.762 1.808z"></path>
<path fill="#f8d24e" style="fill: var(--color1, #f8d24e)" d="M38.767 25.754c0 0.999-0.789 1.808-1.762 1.808s-1.762-0.809-1.762-1.808c0-0.999 0.789-1.808 1.762-1.808s1.762 0.809 1.762 1.808z"></path>
<path fill="#f8d24e" style="fill: var(--color1, #f8d24e)" d="M43.172 23.042c0 0.999-0.789 1.808-1.762 1.808s-1.762-0.809-1.762-1.808c0-0.999 0.789-1.808 1.762-1.808s1.762 0.809 1.762 1.808z"></path>
<path fill="#f8d24e" style="fill: var(--color1, #f8d24e)" d="M47.284 20.631c0 0.999-0.789 1.808-1.762 1.808s-1.762-0.809-1.762-1.808c0-0.999 0.789-1.808 1.762-1.808s1.762 0.809 1.762 1.808z"></path>
<path fill="#f8d24e" style="fill: var(--color1, #f8d24e)" d="M51.689 17.016c0 0.999-0.789 1.808-1.762 1.808s-1.762-0.809-1.762-1.808c0-0.999 0.789-1.808 1.762-1.808s1.762 0.809 1.762 1.808z"></path>
<path fill="#f8d24e" style="fill: var(--color1, #f8d24e)" d="M42.291 19.125c0 0.999-0.789 1.808-1.762 1.808s-1.762-0.809-1.762-1.808c0-0.999 0.789-1.808 1.762-1.808s1.762 0.809 1.762 1.808z"></path>
<path fill="#f8d24e" style="fill: var(--color1, #f8d24e)" d="M17.622 29.069c0 0.999-0.789 1.808-1.762 1.808s-1.762-0.809-1.762-1.808c0-0.999 0.789-1.808 1.762-1.808s1.762 0.809 1.762 1.808z"></path>
<path fill="#f8d24e" style="fill: var(--color1, #f8d24e)" d="M21.44 26.658c0 0.999-0.789 1.808-1.762 1.808s-1.762-0.809-1.762-1.808c0-0.999 0.789-1.808 1.762-1.808s1.762 0.809 1.762 1.808z"></path>
<path fill="#f8d24e" style="fill: var(--color1, #f8d24e)" d="M25.845 23.946c0 0.999-0.789 1.808-1.762 1.808s-1.762-0.809-1.762-1.808c0-0.999 0.789-1.808 1.762-1.808s1.762 0.809 1.762 1.808z"></path>
<path fill="#f8d24e" style="fill: var(--color1, #f8d24e)" d="M29.956 21.536c0 0.999-0.789 1.808-1.762 1.808s-1.762-0.809-1.762-1.808c0-0.999 0.789-1.808 1.762-1.808s1.762 0.809 1.762 1.808z"></path>
<path fill="#f8d24e" style="fill: var(--color1, #f8d24e)" d="M10.28 28.767c0 0.999-0.789 1.808-1.762 1.808s-1.762-0.809-1.762-1.808c0-0.999 0.789-1.808 1.762-1.808s1.762 0.809 1.762 1.808z"></path>
<path fill="#f8d24e" style="fill: var(--color1, #f8d24e)" d="M14.097 26.356c0 0.999-0.789 1.808-1.762 1.808s-1.762-0.809-1.762-1.808c0-0.999 0.789-1.808 1.762-1.808s1.762 0.809 1.762 1.808z"></path>
<path fill="#f8d24e" style="fill: var(--color1, #f8d24e)" d="M18.503 23.645c0 0.999-0.789 1.808-1.762 1.808s-1.762-0.809-1.762-1.808c0-0.999 0.789-1.808 1.762-1.808s1.762 0.809 1.762 1.808z"></path>
<path fill="#f8d24e" style="fill: var(--color1, #f8d24e)" d="M22.614 21.234c0 0.999-0.789 1.808-1.762 1.808s-1.762-0.809-1.762-1.808c0-0.999 0.789-1.808 1.762-1.808s1.762 0.809 1.762 1.808z"></path>
</symbol>

<symbol id="icon-dots-mobile" viewBox="0 0 205 32">
<path fill="#f8d24e" style="fill: var(--color1, #f8d24e)" d="M155.332 29.617c0 0.982-0.764 1.779-1.706 1.779s-1.706-0.796-1.706-1.779c0-0.982 0.764-1.779 1.706-1.779s1.706 0.796 1.706 1.779z"></path>
<path fill="#f8d24e" style="fill: var(--color1, #f8d24e)" d="M159.029 27.245c0 0.982-0.764 1.779-1.706 1.779s-1.706-0.796-1.706-1.779c0-0.982 0.764-1.779 1.706-1.779s1.706 0.796 1.706 1.779z"></path>
<path fill="#f8d24e" style="fill: var(--color1, #f8d24e)" d="M163.292 24.578c0 0.982-0.764 1.779-1.706 1.779s-1.706-0.796-1.706-1.779c0-0.982 0.764-1.779 1.706-1.779s1.706 0.796 1.706 1.779z"></path>
<path fill="#f8d24e" style="fill: var(--color1, #f8d24e)" d="M167.273 22.207c0 0.982-0.764 1.779-1.706 1.779s-1.706-0.796-1.706-1.779c0-0.982 0.764-1.779 1.706-1.779s1.706 0.796 1.706 1.779z"></path>
<path fill="#f8d24e" style="fill: var(--color1, #f8d24e)" d="M164.998 28.431c0 0.982-0.764 1.779-1.706 1.779s-1.706-0.796-1.706-1.779c0-0.982 0.764-1.779 1.706-1.779s1.706 0.796 1.706 1.779z"></path>
<path fill="#f8d24e" style="fill: var(--color1, #f8d24e)" d="M168.694 26.060c0 0.982-0.764 1.779-1.706 1.779s-1.706-0.796-1.706-1.779c0-0.982 0.764-1.779 1.706-1.779s1.706 0.796 1.706 1.779z"></path>
<path fill="#f8d24e" style="fill: var(--color1, #f8d24e)" d="M172.957 23.392c0 0.982-0.764 1.779-1.706 1.779s-1.706-0.796-1.706-1.779c0-0.982 0.764-1.779 1.706-1.779s1.706 0.796 1.706 1.779z"></path>
<path fill="#f8d24e" style="fill: var(--color1, #f8d24e)" d="M176.939 21.021c0 0.982-0.764 1.779-1.706 1.779s-1.706-0.796-1.706-1.779c0-0.982 0.764-1.779 1.706-1.779s1.706 0.796 1.706 1.779z"></path>
<path fill="#f8d24e" style="fill: var(--color1, #f8d24e)" d="M173.243 27.542c0 0.982-0.764 1.779-1.706 1.779s-1.706-0.796-1.706-1.779c0-0.982 0.764-1.779 1.706-1.779s1.706 0.796 1.706 1.779z"></path>
<path fill="#f8d24e" style="fill: var(--color1, #f8d24e)" d="M176.94 25.171c0 0.982-0.764 1.779-1.706 1.779s-1.706-0.796-1.706-1.779c0-0.982 0.764-1.779 1.706-1.779s1.706 0.796 1.706 1.779z"></path>
<path fill="#f8d24e" style="fill: var(--color1, #f8d24e)" d="M181.204 22.503c0 0.982-0.764 1.779-1.706 1.779s-1.706-0.796-1.706-1.779c0-0.982 0.764-1.779 1.706-1.779s1.706 0.796 1.706 1.779z"></path>
<path fill="#f8d24e" style="fill: var(--color1, #f8d24e)" d="M185.183 20.132c0 0.982-0.764 1.779-1.706 1.779s-1.706-0.796-1.706-1.779c0-0.982 0.764-1.779 1.706-1.779s1.706 0.796 1.706 1.779z"></path>
<path fill="#f8d24e" style="fill: var(--color1, #f8d24e)" d="M181.203 26.356c0 0.982-0.764 1.779-1.706 1.779s-1.706-0.796-1.706-1.779c0-0.982 0.764-1.779 1.706-1.779s1.706 0.796 1.706 1.779z"></path>
<path fill="#f8d24e" style="fill: var(--color1, #f8d24e)" d="M184.897 23.985c0 0.982-0.764 1.779-1.706 1.779s-1.706-0.796-1.706-1.779c0-0.982 0.764-1.779 1.706-1.779s1.706 0.796 1.706 1.779z"></path>
<path fill="#f8d24e" style="fill: var(--color1, #f8d24e)" d="M189.162 21.318c0 0.982-0.764 1.779-1.706 1.779s-1.706-0.796-1.706-1.779c0-0.982 0.764-1.779 1.706-1.779s1.706 0.796 1.706 1.779z"></path>
<path fill="#f8d24e" style="fill: var(--color1, #f8d24e)" d="M193.142 18.947c0 0.982-0.764 1.779-1.706 1.779s-1.706-0.796-1.706-1.779c0-0.982 0.764-1.779 1.706-1.779s1.706 0.796 1.706 1.779z"></path>
<path fill="#f8d24e" style="fill: var(--color1, #f8d24e)" d="M183.762 29.617c0 0.982-0.764 1.779-1.706 1.779s-1.706-0.796-1.706-1.779c0-0.982 0.764-1.779 1.706-1.779s1.706 0.796 1.706 1.779z"></path>
<path fill="#f8d24e" style="fill: var(--color1, #f8d24e)" d="M187.458 27.245c0 0.982-0.764 1.779-1.706 1.779s-1.706-0.796-1.706-1.779c0-0.982 0.764-1.779 1.706-1.779s1.706 0.796 1.706 1.779z"></path>
<path fill="#f8d24e" style="fill: var(--color1, #f8d24e)" d="M192.575 29.913c0 0.982-0.764 1.779-1.706 1.779s-1.706-0.796-1.706-1.779c0-0.982 0.764-1.779 1.706-1.779s1.706 0.796 1.706 1.779z"></path>
<path fill="#f8d24e" style="fill: var(--color1, #f8d24e)" d="M191.723 24.578c0 0.982-0.764 1.779-1.706 1.779s-1.706-0.796-1.706-1.779c0-0.982 0.764-1.779 1.706-1.779s1.706 0.796 1.706 1.779z"></path>
<path fill="#f8d24e" style="fill: var(--color1, #f8d24e)" d="M196.84 27.245c0 0.982-0.764 1.779-1.706 1.779s-1.706-0.796-1.706-1.779c0-0.982 0.764-1.779 1.706-1.779s1.706 0.796 1.706 1.779z"></path>
<path fill="#f8d24e" style="fill: var(--color1, #f8d24e)" d="M200.82 29.913c0 0.982-0.764 1.779-1.706 1.779s-1.706-0.796-1.706-1.779c0-0.982 0.764-1.779 1.706-1.779s1.706 0.796 1.706 1.779z"></path>
<path fill="#f8d24e" style="fill: var(--color1, #f8d24e)" d="M195.702 22.207c0 0.982-0.764 1.779-1.706 1.779s-1.706-0.796-1.706-1.779c0-0.982 0.764-1.779 1.706-1.779s1.706 0.796 1.706 1.779z"></path>
<path fill="#f8d24e" style="fill: var(--color1, #f8d24e)" d="M200.82 24.874c0 0.982-0.764 1.779-1.706 1.779s-1.706-0.796-1.706-1.779c0-0.982 0.764-1.779 1.706-1.779s1.706 0.796 1.706 1.779z"></path>
<path fill="#f8d24e" style="fill: var(--color1, #f8d24e)" d="M204.8 27.542c0 0.982-0.764 1.779-1.706 1.779s-1.706-0.796-1.706-1.779c0-0.982 0.764-1.779 1.706-1.779s1.706 0.796 1.706 1.779z"></path>
<path fill="#f8d24e" style="fill: var(--color1, #f8d24e)" d="M137.992 10.055c0 0.982-0.764 1.779-1.706 1.779s-1.706-0.796-1.706-1.779c0-0.982 0.764-1.779 1.706-1.779s1.706 0.796 1.706 1.779z"></path>
<path fill="#f8d24e" style="fill: var(--color1, #f8d24e)" d="M141.688 7.684c0 0.982-0.764 1.779-1.706 1.779s-1.706-0.796-1.706-1.779c0-0.982 0.764-1.779 1.706-1.779s1.706 0.796 1.706 1.779z"></path>
<path fill="#f8d24e" style="fill: var(--color1, #f8d24e)" d="M145.953 5.016c0 0.982-0.764 1.779-1.706 1.779s-1.706-0.796-1.706-1.779c0-0.982 0.764-1.779 1.706-1.779s1.706 0.796 1.706 1.779z"></path>
<path fill="#f8d24e" style="fill: var(--color1, #f8d24e)" d="M149.932 2.645c0 0.982-0.764 1.779-1.706 1.779s-1.706-0.796-1.706-1.779c0-0.982 0.764-1.779 1.706-1.779s1.706 0.796 1.706 1.779z"></path>
<path fill="#f8d24e" style="fill: var(--color1, #f8d24e)" d="M130.884 9.758c0 0.982-0.764 1.779-1.706 1.779s-1.706-0.796-1.706-1.779c0-0.982 0.764-1.779 1.706-1.779s1.706 0.796 1.706 1.779z"></path>
<path fill="#f8d24e" style="fill: var(--color1, #f8d24e)" d="M134.579 7.387c0 0.982-0.764 1.779-1.706 1.779s-1.706-0.796-1.706-1.779c0-0.982 0.764-1.779 1.706-1.779s1.706 0.796 1.706 1.779z"></path>
<path fill="#f8d24e" style="fill: var(--color1, #f8d24e)" d="M138.844 4.72c0 0.982-0.764 1.779-1.706 1.779s-1.706-0.796-1.706-1.779c0-0.982 0.764-1.779 1.706-1.779s1.706 0.796 1.706 1.779z"></path>
<path fill="#f8d24e" style="fill: var(--color1, #f8d24e)" d="M142.824 2.349c0 0.982-0.764 1.779-1.706 1.779s-1.706-0.796-1.706-1.779c0-0.982 0.764-1.779 1.706-1.779s1.706 0.796 1.706 1.779z"></path>
<path fill="#f8d24e" style="fill: var(--color1, #f8d24e)" d="M146.804 29.617c0 0.982-0.764 1.779-1.706 1.779s-1.706-0.796-1.706-1.779c0-0.982 0.764-1.779 1.706-1.779s1.706 0.796 1.706 1.779z"></path>
<path fill="#f8d24e" style="fill: var(--color1, #f8d24e)" d="M150.499 27.245c0 0.982-0.764 1.779-1.706 1.779s-1.706-0.796-1.706-1.779c0-0.982 0.764-1.779 1.706-1.779s1.706 0.796 1.706 1.779z"></path>
<path fill="#f8d24e" style="fill: var(--color1, #f8d24e)" d="M154.763 24.578c0 0.982-0.764 1.779-1.706 1.779s-1.706-0.796-1.706-1.779c0-0.982 0.764-1.779 1.706-1.779s1.706 0.796 1.706 1.779z"></path>
<path fill="#f8d24e" style="fill: var(--color1, #f8d24e)" d="M158.744 22.207c0 0.982-0.764 1.779-1.706 1.779s-1.706-0.796-1.706-1.779c0-0.982 0.764-1.779 1.706-1.779s1.706 0.796 1.706 1.779z"></path>
<path fill="#f8d24e" style="fill: var(--color1, #f8d24e)" d="M142.256 27.839c0 0.982-0.764 1.779-1.706 1.779s-1.706-0.796-1.706-1.779c0-0.982 0.764-1.779 1.706-1.779s1.706 0.796 1.706 1.779z"></path>
<path fill="#f8d24e" style="fill: var(--color1, #f8d24e)" d="M145.951 25.468c0 0.982-0.764 1.779-1.706 1.779s-1.706-0.796-1.706-1.779c0-0.982 0.764-1.779 1.706-1.779s1.706 0.796 1.706 1.779z"></path>
<path fill="#f8d24e" style="fill: var(--color1, #f8d24e)" d="M150.215 22.799c0 0.982-0.764 1.779-1.706 1.779s-1.706-0.796-1.706-1.779c0-0.982 0.764-1.779 1.706-1.779s1.706 0.796 1.706 1.779z"></path>
<path fill="#f8d24e" style="fill: var(--color1, #f8d24e)" d="M154.196 20.429c0 0.982-0.764 1.779-1.706 1.779s-1.706-0.796-1.706-1.779c0-0.982 0.764-1.779 1.706-1.779s1.706 0.796 1.706 1.779z"></path>
<path fill="#f8d24e" style="fill: var(--color1, #f8d24e)" d="M143.962 21.614c0 0.982-0.764 1.779-1.706 1.779s-1.706-0.796-1.706-1.779c0-0.982 0.764-1.779 1.706-1.779s1.706 0.796 1.706 1.779z"></path>
<path fill="#f8d24e" style="fill: var(--color1, #f8d24e)" d="M147.656 19.243c0 0.982-0.764 1.779-1.706 1.779s-1.706-0.796-1.706-1.779c0-0.982 0.764-1.779 1.706-1.779s1.706 0.796 1.706 1.779z"></path>
<path fill="#f8d24e" style="fill: var(--color1, #f8d24e)" d="M151.922 16.575c0 0.982-0.764 1.779-1.706 1.779s-1.706-0.796-1.706-1.779c0-0.982 0.764-1.779 1.706-1.779s1.706 0.796 1.706 1.779z"></path>
<path fill="#f8d24e" style="fill: var(--color1, #f8d24e)" d="M155.901 14.204c0 0.982-0.764 1.779-1.706 1.779s-1.706-0.796-1.706-1.779c0-0.982 0.764-1.779 1.706-1.779s1.706 0.796 1.706 1.779z"></path>
<path fill="#f8d24e" style="fill: var(--color1, #f8d24e)" d="M143.962 11.24c0 0.982-0.764 1.779-1.706 1.779s-1.706-0.796-1.706-1.779c0-0.982 0.764-1.779 1.706-1.779s1.706 0.796 1.706 1.779z"></path>
<path fill="#f8d24e" style="fill: var(--color1, #f8d24e)" d="M147.656 8.869c0 0.982-0.764 1.779-1.706 1.779s-1.706-0.796-1.706-1.779c0-0.982 0.764-1.779 1.706-1.779s1.706 0.796 1.706 1.779z"></path>
<path fill="#f8d24e" style="fill: var(--color1, #f8d24e)" d="M151.922 6.202c0 0.982-0.764 1.779-1.706 1.779s-1.706-0.796-1.706-1.779c0-0.982 0.764-1.779 1.706-1.779s1.706 0.796 1.706 1.779z"></path>
<path fill="#f8d24e" style="fill: var(--color1, #f8d24e)" d="M155.901 3.83c0 0.982-0.764 1.779-1.706 1.779s-1.706-0.796-1.706-1.779c0-0.982 0.764-1.779 1.706-1.779s1.706 0.796 1.706 1.779z"></path>
<path fill="#f8d24e" style="fill: var(--color1, #f8d24e)" d="M143.108 16.872c0 0.982-0.764 1.779-1.706 1.779s-1.706-0.796-1.706-1.779c0-0.982 0.764-1.779 1.706-1.779s1.706 0.796 1.706 1.779z"></path>
<path fill="#f8d24e" style="fill: var(--color1, #f8d24e)" d="M146.804 14.5c0 0.982-0.764 1.779-1.706 1.779s-1.706-0.796-1.706-1.779c0-0.982 0.764-1.779 1.706-1.779s1.706 0.796 1.706 1.779z"></path>
<path fill="#f8d24e" style="fill: var(--color1, #f8d24e)" d="M151.068 11.834c0 0.982-0.764 1.779-1.706 1.779s-1.706-0.796-1.706-1.779c0-0.982 0.764-1.779 1.706-1.779s1.706 0.796 1.706 1.779z"></path>
<path fill="#f8d24e" style="fill: var(--color1, #f8d24e)" d="M155.048 9.462c0 0.982-0.764 1.779-1.706 1.779s-1.706-0.796-1.706-1.779c0-0.982 0.764-1.779 1.706-1.779s1.706 0.796 1.706 1.779z"></path>
<path fill="#f8d24e" style="fill: var(--color1, #f8d24e)" d="M125.198 8.276c0 0.982-0.764 1.779-1.706 1.779s-1.706-0.796-1.706-1.779c0-0.982 0.764-1.779 1.706-1.779s1.706 0.796 1.706 1.779z"></path>
<path fill="#f8d24e" style="fill: var(--color1, #f8d24e)" d="M128.895 5.905c0 0.982-0.764 1.779-1.706 1.779s-1.706-0.796-1.706-1.779c0-0.982 0.764-1.779 1.706-1.779s1.706 0.796 1.706 1.779z"></path>
<path fill="#f8d24e" style="fill: var(--color1, #f8d24e)" d="M133.159 3.238c0 0.982-0.764 1.779-1.706 1.779s-1.706-0.796-1.706-1.779c0-0.982 0.764-1.779 1.706-1.779s1.706 0.796 1.706 1.779z"></path>
<path fill="#f8d24e" style="fill: var(--color1, #f8d24e)" d="M131.169 10.054c0.942 0 1.706-0.796 1.706-1.778s-0.764-1.779-1.706-1.779-1.706 0.796-1.706 1.779c0 0.982 0.764 1.778 1.706 1.778z"></path>
<path fill="#f8d24e" style="fill: var(--color1, #f8d24e)" d="M52.732 21.475c0.145 0.985-0.504 1.906-1.449 2.057s-1.828-0.525-1.973-1.51c-0.145-0.985 0.504-1.906 1.449-2.057s1.828 0.525 1.973 1.51z"></path>
<path fill="#f8d24e" style="fill: var(--color1, #f8d24e)" d="M56.090 18.504c0.145 0.985-0.504 1.906-1.449 2.057s-1.828-0.525-1.973-1.51c-0.145-0.985 0.504-1.906 1.449-2.057s1.828 0.525 1.973 1.51z"></path>
<path fill="#f8d24e" style="fill: var(--color1, #f8d24e)" d="M59.974 15.144c0.145 0.985-0.504 1.906-1.449 2.057s-1.828-0.525-1.973-1.51c-0.145-0.985 0.504-1.906 1.449-2.057s1.828 0.525 1.973 1.51z"></path>
<path fill="#f8d24e" style="fill: var(--color1, #f8d24e)" d="M63.617 12.128c0.145 0.985-0.504 1.906-1.449 2.057s-1.828-0.525-1.973-1.51c-0.145-0.985 0.504-1.906 1.449-2.057s1.828 0.525 1.973 1.51z"></path>
<path fill="#f8d24e" style="fill: var(--color1, #f8d24e)" d="M2.132 19.067c0 0.997-0.779 1.805-1.741 1.805s-1.741-0.808-1.741-1.805c0-0.997 0.779-1.805 1.741-1.805s1.741 0.808 1.741 1.805z"></path>
<path fill="#f8d24e" style="fill: var(--color1, #f8d24e)" d="M6.485 16.36c0 0.997-0.779 1.805-1.741 1.805s-1.741-0.808-1.741-1.805c0-0.997 0.779-1.805 1.741-1.805s1.741 0.808 1.741 1.805z"></path>
<path fill="#f8d24e" style="fill: var(--color1, #f8d24e)" d="M10.546 13.953c0 0.997-0.779 1.805-1.741 1.805s-1.741-0.808-1.741-1.805c0-0.997 0.779-1.805 1.741-1.805s1.741 0.808 1.741 1.805z"></path>
<path fill="#f8d24e" style="fill: var(--color1, #f8d24e)" d="M0.102 25.984c0 0.997-0.779 1.805-1.741 1.805s-1.741-0.808-1.741-1.805c0-0.997 0.779-1.805 1.741-1.805s1.741 0.808 1.741 1.805z"></path>
<path fill="#f8d24e" style="fill: var(--color1, #f8d24e)" d="M3.874 23.578c0 0.997-0.779 1.805-1.741 1.805s-1.741-0.808-1.741-1.805c0-0.997 0.779-1.805 1.741-1.805s1.741 0.808 1.741 1.805z"></path>
<path fill="#f8d24e" style="fill: var(--color1, #f8d24e)" d="M8.227 20.871c0 0.997-0.779 1.805-1.741 1.805s-1.741-0.808-1.741-1.805c0-0.997 0.779-1.805 1.741-1.805s1.741 0.808 1.741 1.805z"></path>
<path fill="#f8d24e" style="fill: var(--color1, #f8d24e)" d="M12.287 18.465c0 0.997-0.779 1.805-1.741 1.805s-1.741-0.808-1.741-1.805c0-0.997 0.779-1.805 1.741-1.805s1.741 0.808 1.741 1.805z"></path>
<path fill="#f8d24e" style="fill: var(--color1, #f8d24e)" d="M4.453 28.39c0 0.997-0.779 1.805-1.741 1.805s-1.741-0.808-1.741-1.805c0-0.997 0.779-1.805 1.741-1.805s1.741 0.808 1.741 1.805z"></path>
<path fill="#f8d24e" style="fill: var(--color1, #f8d24e)" d="M8.225 25.984c0 0.997-0.779 1.805-1.741 1.805s-1.741-0.808-1.741-1.805c0-0.997 0.779-1.805 1.741-1.805s1.741 0.808 1.741 1.805z"></path>
<path fill="#f8d24e" style="fill: var(--color1, #f8d24e)" d="M12.577 23.277c0 0.997-0.779 1.805-1.741 1.805s-1.741-0.808-1.741-1.805c0-0.997 0.779-1.805 1.741-1.805s1.741 0.808 1.741 1.805z"></path>
<path fill="#f8d24e" style="fill: var(--color1, #f8d24e)" d="M16.637 20.871c0 0.997-0.779 1.805-1.741 1.805s-1.741-0.808-1.741-1.805c0-0.997 0.779-1.805 1.741-1.805s1.741 0.808 1.741 1.805z"></path>
<path fill="#f8d24e" style="fill: var(--color1, #f8d24e)" d="M9.384 29.895c0 0.997-0.779 1.805-1.741 1.805s-1.741-0.808-1.741-1.805c0-0.997 0.779-1.805 1.741-1.805s1.741 0.808 1.741 1.805z"></path>
<path fill="#f8d24e" style="fill: var(--color1, #f8d24e)" d="M13.156 27.488c0 0.997-0.779 1.805-1.741 1.805s-1.741-0.808-1.741-1.805c0-0.997 0.779-1.805 1.741-1.805s1.741 0.808 1.741 1.805z"></path>
<path fill="#f8d24e" style="fill: var(--color1, #f8d24e)" d="M17.509 24.781c0 0.997-0.779 1.805-1.741 1.805s-1.741-0.808-1.741-1.805c0-0.997 0.779-1.805 1.741-1.805s1.741 0.808 1.741 1.805z"></path>
<path fill="#f8d24e" style="fill: var(--color1, #f8d24e)" d="M21.569 22.375c0 0.997-0.779 1.805-1.741 1.805s-1.741-0.808-1.741-1.805c0-0.997 0.779-1.805 1.741-1.805s1.741 0.808 1.741 1.805z"></path>
<path fill="#f8d24e" style="fill: var(--color1, #f8d24e)" d="M15.768 30.196c0 0.997-0.779 1.805-1.741 1.805s-1.741-0.808-1.741-1.805c0-0.997 0.779-1.805 1.741-1.805s1.741 0.808 1.741 1.805z"></path>
<path fill="#f8d24e" style="fill: var(--color1, #f8d24e)" d="M19.539 27.789c0 0.997-0.779 1.805-1.741 1.805s-1.741-0.808-1.741-1.805c0-0.997 0.779-1.805 1.741-1.805s1.741 0.808 1.741 1.805z"></path>
<path fill="#f8d24e" style="fill: var(--color1, #f8d24e)" d="M23.891 25.082c0 0.997-0.779 1.805-1.741 1.805s-1.741-0.808-1.741-1.805c0-0.997 0.779-1.805 1.741-1.805s1.741 0.808 1.741 1.805z"></path>
<path fill="#f8d24e" style="fill: var(--color1, #f8d24e)" d="M27.952 22.676c0 0.997-0.779 1.805-1.741 1.805s-1.741-0.808-1.741-1.805c0-0.997 0.779-1.805 1.741-1.805s1.741 0.808 1.741 1.805z"></path>
<path fill="#f8d24e" style="fill: var(--color1, #f8d24e)" d="M23.311 30.195c0 0.997-0.779 1.805-1.741 1.805s-1.741-0.808-1.741-1.805c0-0.997 0.779-1.805 1.741-1.805s1.741 0.808 1.741 1.805z"></path>
<path fill="#f8d24e" style="fill: var(--color1, #f8d24e)" d="M27.082 27.789c0 0.997-0.779 1.805-1.741 1.805s-1.741-0.808-1.741-1.805c0-0.997 0.779-1.805 1.741-1.805s1.741 0.808 1.741 1.805z"></path>
<path fill="#f8d24e" style="fill: var(--color1, #f8d24e)" d="M31.434 25.082c0 0.997-0.779 1.805-1.741 1.805s-1.741-0.808-1.741-1.805c0-0.997 0.779-1.805 1.741-1.805s1.741 0.808 1.741 1.805z"></path>
<path fill="#f8d24e" style="fill: var(--color1, #f8d24e)" d="M35.496 22.676c0 0.997-0.779 1.805-1.741 1.805s-1.741-0.808-1.741-1.805c0-0.997 0.779-1.805 1.741-1.805s1.741 0.808 1.741 1.805z"></path>
<path fill="#f8d24e" style="fill: var(--color1, #f8d24e)" d="M29.692 29.894c0 0.997-0.779 1.805-1.741 1.805s-1.741-0.808-1.741-1.805c0-0.997 0.779-1.805 1.741-1.805s1.741 0.808 1.741 1.805z"></path>
<path fill="#f8d24e" style="fill: var(--color1, #f8d24e)" d="M33.463 27.488c0 0.997-0.779 1.805-1.741 1.805s-1.741-0.808-1.741-1.805c0-0.997 0.779-1.805 1.741-1.805s1.741 0.808 1.741 1.805z"></path>
<path fill="#f8d24e" style="fill: var(--color1, #f8d24e)" d="M37.816 24.781c0 0.997-0.779 1.805-1.741 1.805s-1.741-0.808-1.741-1.805c0-0.997 0.779-1.805 1.741-1.805s1.741 0.808 1.741 1.805z"></path>
<path fill="#f8d24e" style="fill: var(--color1, #f8d24e)" d="M41.876 22.375c0 0.997-0.779 1.805-1.741 1.805s-1.741-0.808-1.741-1.805c0-0.997 0.779-1.805 1.741-1.805s1.741 0.808 1.741 1.805z"></path>
<path fill="#f8d24e" style="fill: var(--color1, #f8d24e)" d="M36.945 29.594c0 0.997-0.779 1.805-1.741 1.805s-1.741-0.808-1.741-1.805c0-0.997 0.779-1.805 1.741-1.805s1.741 0.808 1.741 1.805z"></path>
<path fill="#f8d24e" style="fill: var(--color1, #f8d24e)" d="M40.716 27.187c0 0.997-0.779 1.805-1.741 1.805s-1.741-0.808-1.741-1.805c0-0.997 0.779-1.805 1.741-1.805s1.741 0.808 1.741 1.805z"></path>
<path fill="#f8d24e" style="fill: var(--color1, #f8d24e)" d="M45.068 24.481c0 0.997-0.779 1.805-1.741 1.805s-1.741-0.808-1.741-1.805c0-0.997 0.779-1.805 1.741-1.805s1.741 0.808 1.741 1.805z"></path>
<path fill="#f8d24e" style="fill: var(--color1, #f8d24e)" d="M49.129 22.074c0 0.997-0.779 1.805-1.741 1.805s-1.741-0.808-1.741-1.805c0-0.997 0.779-1.805 1.741-1.805s1.741 0.808 1.741 1.805z"></path>
<path fill="#f8d24e" style="fill: var(--color1, #f8d24e)" d="M43.617 21.773c0 0.997-0.779 1.805-1.741 1.805s-1.741-0.808-1.741-1.805c0-0.997 0.779-1.805 1.741-1.805s1.741 0.808 1.741 1.805z"></path>
<path fill="#f8d24e" style="fill: var(--color1, #f8d24e)" d="M47.388 19.367c0 0.997-0.779 1.805-1.741 1.805s-1.741-0.808-1.741-1.805c0-0.997 0.779-1.805 1.741-1.805s1.741 0.808 1.741 1.805z"></path>
<path fill="#f8d24e" style="fill: var(--color1, #f8d24e)" d="M51.74 16.66c0 0.997-0.779 1.805-1.741 1.805s-1.741-0.808-1.741-1.805c0-0.997 0.779-1.805 1.741-1.805s1.741 0.808 1.741 1.805z"></path>
<path fill="#f8d24e" style="fill: var(--color1, #f8d24e)" d="M55.802 14.254c0 0.997-0.779 1.805-1.741 1.805s-1.741-0.808-1.741-1.805c0-0.997 0.779-1.805 1.741-1.805s1.741 0.808 1.741 1.805z"></path>
</symbol>


<symbol id="icon-arrow" viewBox="0 0 82 32">
<path d="M81.414 17.414c0.362-0.362 0.586-0.862 0.586-1.414s-0.224-1.052-0.586-1.414l-12.728-12.728c-0.364-0.377-0.874-0.611-1.439-0.611-1.105 0-2 0.895-2 2 0 0.565 0.234 1.074 0.61 1.438l0.001 0.001 11.314 11.314-11.314 11.314c-0.347 0.359-0.561 0.849-0.561 1.389 0 1.105 0.895 2 2 2 0.54 0 1.030-0.214 1.39-0.562l-0.001 0.001 12.728-12.728zM0 18h80v-4h-80v4z"></path>
</symbol>
<symbol id="icon-burger" viewBox="0 0 50 32">
<path stroke="#fff"  stroke-linejoin="miter" stroke-linecap="round" stroke-miterlimit="4" stroke-width="4.5714" d="M2.286 2.286h45.714M2.286 16h45.714M2.286 29.714h45.714"></path>
</symbol>
<symbol id="icon-cross" viewBox="0 0 32 32">
<path d="M28.614 1.13l-12.614 12.614-12.614-12.614c-0.303-0.278-0.702-0.427-1.113-0.418s-0.803 0.176-1.094 0.467c-0.291 0.291-0.458 0.683-0.467 1.094s0.141 0.81 0.418 1.113l12.608 12.614-12.611 12.611c-0.154 0.147-0.277 0.323-0.362 0.518s-0.13 0.405-0.133 0.618 0.037 0.424 0.117 0.621c0.080 0.197 0.199 0.376 0.349 0.527s0.329 0.27 0.526 0.35 0.408 0.121 0.621 0.118c0.213-0.002 0.423-0.047 0.618-0.132s0.372-0.208 0.519-0.361l12.618-12.611 12.614 12.614c0.303 0.278 0.702 0.428 1.113 0.418s0.803-0.176 1.094-0.467c0.291-0.291 0.458-0.683 0.467-1.094s-0.141-0.81-0.418-1.113l-12.614-12.614 12.614-12.618c0.154-0.147 0.277-0.323 0.362-0.518s0.13-0.405 0.133-0.618c0.003-0.213-0.037-0.424-0.117-0.621s-0.199-0.376-0.349-0.527c-0.15-0.151-0.329-0.27-0.526-0.35s-0.408-0.121-0.621-0.118-0.423 0.047-0.618 0.132c-0.195 0.085-0.372 0.208-0.519 0.362v0.003z"></path>
</symbol>
<symbol id="icon-facebook" viewBox="0 0 16 32">
<path  d="M14.143 15.971h-4.033v14.865h-6.112v-14.865h-2.906v-5.222h2.906v-3.382c0-2.417 1.142-6.204 6.167-6.204l4.527 0.019v5.072h-3.284c-0.538 0-1.297 0.272-1.297 1.425v3.073h4.567l-0.534 5.219z"></path>
</symbol>
<symbol id="icon-github" viewBox="0 0 32 32">
<path  d="M16 0c-8.789 0-16 7.211-16 16 0 7.499 5.262 14.312 12.25 16v-5.293c-0.276 0.070-0.593 0.109-0.919 0.109-0.398 0-0.781-0.059-1.143-0.169l0.028 0.007c-0.946-0.278-1.714-0.909-2.285-1.869-0.363-0.613-1.008-1.28-1.68-1.23l-0.165-1.867c1.454-0.125 2.71 0.886 3.456 2.139 0.333 0.558 0.715 0.885 1.205 1.029 0.472 0.141 0.981 0.074 1.573-0.136 0.149-1.186 0.693-1.629 1.104-2.256-4.168-0.621-5.829-2.832-6.488-4.576-0.874-2.318-0.405-5.213 1.139-7.043 0.030-0.035 0.085-0.128 0.064-0.192-0.709-2.141 0.154-3.91 0.186-4.098 0.818 0.24 0.95-0.243 3.552 1.336l0.448 0.27c0.189 0.112 0.128 0.048 0.317 0.032 1.003-0.282 2.157-0.452 3.349-0.469l0.010-0c1.136 0.014 2.272 0.176 3.403 0.483l0.146 0.016c-0.013-0.003 0.040-0.010 0.128-0.062 3.248-1.968 3.131-1.325 4.003-1.608 0.032 0.189 0.882 1.987 0.182 4.099-0.096 0.291 2.816 2.957 1.202 7.235-0.659 1.744-2.32 3.957-6.486 4.578 0.534 0.816 1.176 1.248 1.173 2.928v6.606c6.986-1.688 12.25-8.501 12.25-16 0-8.789-7.211-16-16-16z"></path>
</symbol>
<symbol id="icon-greater-than" viewBox="0 0 32 32">
<path stroke-linejoin="round" stroke-linecap="round" stroke-miterlimit="4" stroke-width="5.3333" d="M10.667 5.333l13.195 10.667-13.195 10.667"></path>
</symbol>
<symbol id="icon-telegram" viewBox="0 0 44 32">
<path  d="M17.346 21.048l-0.676 8.86c0.966 0 1.384-0.388 1.886-0.852l4.528-4.040 9.38 6.414c1.72 0.894 2.932 0.422 3.396-1.478l6.16-26.932c0.546-2.372-0.92-3.3-2.596-2.72l-36.194 12.934c-2.47 0.896-2.432 2.18-0.42 2.766l9.254 2.686 21.494-12.552c1.010-0.626 1.93-0.28 1.174 0.346l-17.386 14.57z"></path>
</symbol>
</defs>
</svg>
