<svg width="318" height="50" viewBox="0 0 318 50" fill="none" xmlns="http://www.w3.org/2000/svg">
<ellipse cx="240.479" cy="45.3502" rx="2.58394" ry="2.72308" fill="#F8D24E"/>
<ellipse cx="246.079" cy="41.7193" rx="2.58394" ry="2.72308" fill="#F8D24E"/>
<ellipse cx="252.537" cy="37.6345" rx="2.58394" ry="2.72308" fill="#F8D24E"/>
<ellipse cx="258.568" cy="34.0036" rx="2.58394" ry="2.72308" fill="#F8D24E"/>
<ellipse cx="255.121" cy="43.5348" rx="2.58394" ry="2.72308" fill="#F8D24E"/>
<ellipse cx="260.721" cy="39.9041" rx="2.58394" ry="2.72308" fill="#F8D24E"/>
<ellipse cx="267.18" cy="35.8195" rx="2.58394" ry="2.72308" fill="#F8D24E"/>
<ellipse cx="273.211" cy="32.189" rx="2.58394" ry="2.72308" fill="#F8D24E"/>
<ellipse cx="267.611" cy="42.1735" rx="2.58394" ry="2.72308" fill="#F8D24E"/>
<ellipse cx="273.211" cy="38.5423" rx="2.58394" ry="2.72308" fill="#F8D24E"/>
<ellipse cx="279.671" cy="34.4578" rx="2.58394" ry="2.72308" fill="#F8D24E"/>
<ellipse cx="285.698" cy="30.8277" rx="2.58394" ry="2.72308" fill="#F8D24E"/>
<ellipse cx="279.669" cy="40.3583" rx="2.58394" ry="2.72308" fill="#F8D24E"/>
<ellipse cx="285.267" cy="36.7272" rx="2.58394" ry="2.72308" fill="#F8D24E"/>
<ellipse cx="291.727" cy="32.6428" rx="2.58394" ry="2.72308" fill="#F8D24E"/>
<ellipse cx="297.757" cy="29.012" rx="2.58394" ry="2.72308" fill="#F8D24E"/>
<ellipse cx="283.546" cy="45.3502" rx="2.58394" ry="2.72308" fill="#F8D24E"/>
<ellipse cx="289.145" cy="41.7193" rx="2.58394" ry="2.72308" fill="#F8D24E"/>
<ellipse cx="296.896" cy="45.8039" rx="2.58394" ry="2.72308" fill="#F8D24E"/>
<ellipse cx="295.605" cy="37.6345" rx="2.58394" ry="2.72308" fill="#F8D24E"/>
<ellipse cx="303.356" cy="41.7193" rx="2.58394" ry="2.72308" fill="#F8D24E"/>
<ellipse cx="309.387" cy="45.8039" rx="2.58394" ry="2.72308" fill="#F8D24E"/>
<ellipse cx="301.635" cy="34.0036" rx="2.58394" ry="2.72308" fill="#F8D24E"/>
<ellipse cx="309.387" cy="38.0881" rx="2.58394" ry="2.72308" fill="#F8D24E"/>
<ellipse cx="315.416" cy="42.173" rx="2.58394" ry="2.72308" fill="#F8D24E"/>
<ellipse cx="214.212" cy="15.3969" rx="2.58394" ry="2.72308" fill="#F8D24E"/>
<ellipse cx="219.81" cy="11.7657" rx="2.58394" ry="2.72308" fill="#F8D24E"/>
<ellipse cx="226.271" cy="7.68158" rx="2.58394" ry="2.72308" fill="#F8D24E"/>
<ellipse cx="232.299" cy="4.05072" rx="2.58394" ry="2.72308" fill="#F8D24E"/>
<ellipse cx="203.444" cy="14.9421" rx="2.58394" ry="2.72308" fill="#F8D24E"/>
<ellipse cx="209.042" cy="11.3116" rx="2.58394" ry="2.72308" fill="#F8D24E"/>
<ellipse cx="215.502" cy="7.22748" rx="2.58394" ry="2.72308" fill="#F8D24E"/>
<ellipse cx="221.531" cy="3.59662" rx="2.58394" ry="2.72308" fill="#F8D24E"/>
<ellipse cx="227.56" cy="45.3502" rx="2.58394" ry="2.72308" fill="#F8D24E"/>
<ellipse cx="233.157" cy="41.7193" rx="2.58394" ry="2.72308" fill="#F8D24E"/>
<ellipse cx="239.617" cy="37.6345" rx="2.58394" ry="2.72308" fill="#F8D24E"/>
<ellipse cx="245.647" cy="34.0036" rx="2.58394" ry="2.72308" fill="#F8D24E"/>
<ellipse cx="220.67" cy="42.6276" rx="2.58394" ry="2.72308" fill="#F8D24E"/>
<ellipse cx="226.269" cy="38.9968" rx="2.58394" ry="2.72308" fill="#F8D24E"/>
<ellipse cx="232.727" cy="34.9119" rx="2.58394" ry="2.72308" fill="#F8D24E"/>
<ellipse cx="238.758" cy="31.2813" rx="2.58394" ry="2.72308" fill="#F8D24E"/>
<ellipse cx="223.254" cy="33.0966" rx="2.58394" ry="2.72308" fill="#F8D24E"/>
<ellipse cx="228.852" cy="29.4659" rx="2.58394" ry="2.72308" fill="#F8D24E"/>
<ellipse cx="235.313" cy="25.381" rx="2.58394" ry="2.72308" fill="#F8D24E"/>
<ellipse cx="241.342" cy="21.7505" rx="2.58394" ry="2.72308" fill="#F8D24E"/>
<ellipse cx="223.254" cy="17.2117" rx="2.58394" ry="2.72308" fill="#F8D24E"/>
<ellipse cx="228.852" cy="13.5806" rx="2.58394" ry="2.72308" fill="#F8D24E"/>
<ellipse cx="235.313" cy="9.49627" rx="2.58394" ry="2.72308" fill="#F8D24E"/>
<ellipse cx="241.342" cy="5.86542" rx="2.58394" ry="2.72308" fill="#F8D24E"/>
<ellipse cx="221.961" cy="25.8355" rx="2.58394" ry="2.72308" fill="#F8D24E"/>
<ellipse cx="227.561" cy="22.2042" rx="2.58394" ry="2.72308" fill="#F8D24E"/>
<ellipse cx="234.019" cy="18.1198" rx="2.58394" ry="2.72308" fill="#F8D24E"/>
<ellipse cx="240.049" cy="14.4892" rx="2.58394" ry="2.72308" fill="#F8D24E"/>
<ellipse cx="194.83" cy="12.673" rx="2.58394" ry="2.72308" fill="#F8D24E"/>
<ellipse cx="200.43" cy="9.04217" rx="2.58394" ry="2.72308" fill="#F8D24E"/>
<ellipse cx="206.89" cy="4.95794" rx="2.58394" ry="2.72308" fill="#F8D24E"/>
<path d="M206.459 15.3961C207.886 15.3961 209.043 14.1769 209.043 12.673C209.043 11.1691 207.886 9.94995 206.459 9.94995C205.032 9.94995 203.875 11.1691 203.875 12.673C203.875 14.1769 205.032 15.3961 206.459 15.3961Z" fill="#F8D24E"/>
<ellipse rx="2.62545" ry="2.76016" transform="matrix(0.987227 -0.159496 0.14396 0.989609 85.0469 33.3025)" fill="#F8D24E"/>
<ellipse rx="2.62545" ry="2.76016" transform="matrix(0.987227 -0.159496 0.14396 0.989609 90.1328 28.7524)" fill="#F8D24E"/>
<ellipse rx="2.62545" ry="2.76016" transform="matrix(0.987227 -0.159496 0.14396 0.989609 96.0166 23.6088)" fill="#F8D24E"/>
<ellipse rx="2.62545" ry="2.76016" transform="matrix(0.987227 -0.159496 0.14396 0.989609 101.535 18.9897)" fill="#F8D24E"/>
<ellipse cx="2.71977" cy="33.5514" rx="2.71977" ry="2.81979" fill="#F8D24E"/>
<ellipse cx="8.61137" cy="29.7916" rx="2.71977" ry="2.81979" fill="#F8D24E"/>
<ellipse cx="15.4131" cy="25.562" rx="2.71977" ry="2.81979" fill="#F8D24E"/>
<ellipse cx="21.7579" cy="21.8017" rx="2.71977" ry="2.81979" fill="#F8D24E"/>
<ellipse cx="5.44047" cy="40.6005" rx="2.71977" ry="2.81979" fill="#F8D24E"/>
<ellipse cx="11.3331" cy="36.8408" rx="2.71977" ry="2.81979" fill="#F8D24E"/>
<ellipse cx="18.1338" cy="32.611" rx="2.71977" ry="2.81979" fill="#F8D24E"/>
<ellipse cx="24.4786" cy="28.8513" rx="2.71977" ry="2.81979" fill="#F8D24E"/>
<ellipse cx="12.2383" cy="44.3598" rx="2.71977" ry="2.81979" fill="#F8D24E"/>
<ellipse cx="18.1319" cy="40.6004" rx="2.71977" ry="2.81979" fill="#F8D24E"/>
<ellipse cx="24.9307" cy="36.3707" rx="2.71977" ry="2.81979" fill="#F8D24E"/>
<ellipse cx="31.2764" cy="32.611" rx="2.71977" ry="2.81979" fill="#F8D24E"/>
<ellipse cx="19.9434" cy="46.7105" rx="2.71977" ry="2.81979" fill="#F8D24E"/>
<ellipse cx="25.836" cy="42.95" rx="2.71977" ry="2.81979" fill="#F8D24E"/>
<ellipse cx="32.6377" cy="38.7208" rx="2.71977" ry="2.81979" fill="#F8D24E"/>
<ellipse cx="38.9815" cy="34.961" rx="2.71977" ry="2.81979" fill="#F8D24E"/>
<ellipse cx="29.917" cy="47.1805" rx="2.71977" ry="2.81979" fill="#F8D24E"/>
<ellipse cx="35.8096" cy="43.4207" rx="2.71977" ry="2.81979" fill="#F8D24E"/>
<ellipse cx="42.6104" cy="39.1908" rx="2.71977" ry="2.81979" fill="#F8D24E"/>
<ellipse cx="48.9551" cy="35.4315" rx="2.71977" ry="2.81979" fill="#F8D24E"/>
<ellipse cx="41.7041" cy="47.1803" rx="2.71977" ry="2.81979" fill="#F8D24E"/>
<ellipse cx="47.5957" cy="43.4205" rx="2.71977" ry="2.81979" fill="#F8D24E"/>
<ellipse cx="54.3956" cy="39.1905" rx="2.71977" ry="2.81979" fill="#F8D24E"/>
<ellipse cx="60.7422" cy="35.4312" rx="2.71977" ry="2.81979" fill="#F8D24E"/>
<ellipse cx="51.6739" cy="46.7103" rx="2.71977" ry="2.81979" fill="#F8D24E"/>
<ellipse cx="57.5665" cy="42.95" rx="2.71977" ry="2.81979" fill="#F8D24E"/>
<ellipse cx="64.3672" cy="38.7208" rx="2.71977" ry="2.81979" fill="#F8D24E"/>
<ellipse cx="70.712" cy="34.961" rx="2.71977" ry="2.81979" fill="#F8D24E"/>
<ellipse cx="63.0059" cy="46.24" rx="2.71977" ry="2.81979" fill="#F8D24E"/>
<ellipse cx="68.8985" cy="42.4804" rx="2.71977" ry="2.81979" fill="#F8D24E"/>
<ellipse cx="75.6993" cy="38.2509" rx="2.71977" ry="2.81979" fill="#F8D24E"/>
<ellipse cx="82.044" cy="34.4909" rx="2.71977" ry="2.81979" fill="#F8D24E"/>
<ellipse cx="73.4317" cy="34.0211" rx="2.71977" ry="2.81979" fill="#F8D24E"/>
<ellipse cx="79.3243" cy="30.2614" rx="2.71977" ry="2.81979" fill="#F8D24E"/>
<ellipse cx="86.1241" cy="26.0317" rx="2.71977" ry="2.81979" fill="#F8D24E"/>
<ellipse cx="92.4698" cy="22.2717" rx="2.71977" ry="2.81979" fill="#F8D24E"/>
</svg>
